<?xml version="1.0" encoding="UTF-8" standalone="no"?>
<svg
   xmlns:dc="http://purl.org/dc/elements/1.1/"
   xmlns:cc="http://creativecommons.org/ns#"
   xmlns:rdf="http://www.w3.org/1999/02/22-rdf-syntax-ns#"
   xmlns:svg="http://www.w3.org/2000/svg"
   xmlns="http://www.w3.org/2000/svg"
   xmlns:sodipodi="http://sodipodi.sourceforge.net/DTD/sodipodi-0.dtd"
   xmlns:inkscape="http://www.inkscape.org/namespaces/inkscape"
   version="1.1"
   id="Layer_1"
   x="0px"
   y="0px"
   width="809px"
   height="229px"
   viewBox="0 0 809 229"
   style="enable-background:new 0 0 809 229;"
   xml:space="preserve"
   sodipodi:docname="mir.svg"
   inkscape:version="0.92.3 (2405546, 2018-03-11)"><sodipodi:namedview
     pagecolor="#ffffff"
     bordercolor="#666666"
     borderopacity="1"
     objecttolerance="10"
     gridtolerance="10"
     guidetolerance="10"
     inkscape:pageopacity="0"
     inkscape:pageshadow="2"
     inkscape:window-width="1654"
     inkscape:window-height="821"
     id="namedview13"
     showgrid="false"
     inkscape:zoom="0.66427831"
     inkscape:cx="592.60398"
     inkscape:cy="362.46648"
     inkscape:window-x="0"
     inkscape:window-y="0"
     inkscape:window-maximized="0"
     inkscape:current-layer="Layer_1" /><metadata
     id="metadata30"><rdf:RDF><cc:Work
         rdf:about=""><dc:format>image/svg+xml</dc:format><dc:type
           rdf:resource="http://purl.org/dc/dcmitype/StillImage" /><dc:title></dc:title></cc:Work></rdf:RDF></metadata><defs
     id="defs28"><linearGradient
       y2="47"
       x2="809"
       y1="47"
       x1="570.9194"
       gradientUnits="userSpaceOnUse"
       id="SVGID_1_"><stop
         id="stop20"
         style="stop-color:#00B4E6"
         offset="0.3" /><stop
         id="stop22"
         style="stop-color:#088CCB"
         offset="1" /></linearGradient></defs><style
     type="text/css"
     id="style3">
	.st0{fill-rule:evenodd;clip-rule:evenodd;fill:#4DB45E;}
	.st1{fill-rule:evenodd;clip-rule:evenodd;fill:url(#SVGID_1_);}
</style><path
     inkscape:connector-curvature="0"
     id="path7"
     d="m 218,0 v 0.1 c -0.1,0 -31.6,-0.1 -40,30 -7.7,27.6 -29.4,103.8 -30,105.9 h -6 C 142,136 119.8,58.1 112,30 103.6,-0.1 72,0 72,0 H 0 V 229 H 72 V 93 h 3 3 l 42,136 h 50 L 212,93.1 h 6 V 229 h 72 V 0 Z"
     class="st0"
     style="clip-rule:evenodd;fill:#4db45e;fill-rule:evenodd" /><path
     inkscape:connector-curvature="0"
     id="path11"
     d="m 481,0 c 0,0 -21.1,1.9 -31,24 l -51,112 h -6 V 0 h -72 v 229 h 68 v 0 c 0,0 22.1,-2 32,-24 L 471,93 h 6 v 136 h 72 V 0 Z"
     class="st0"
     style="clip-rule:evenodd;fill:#4db45e;fill-rule:evenodd" /><path
     inkscape:connector-curvature="0"
     id="path15"
     d="m 581,104 v 125 h 72 v -73 h 78 c 34,0 62.8,-21.7 73.5,-52 z"
     class="st0"
     style="clip-rule:evenodd;fill:#4db45e;fill-rule:evenodd" /><path
     inkscape:connector-curvature="0"
     id="path24"
     d="M 731,0 H 570.9 c 8,43.6 40.7,78.6 83,90 v 0 c 9.6,2.6 19.7,4 30.1,4 H 807.4 C 808.5,88.8 809,83.5 809,78 809,34.9 774.1,0 731,0 Z"
     class="st1"
     style="clip-rule:evenodd;fill:#00b4e6;fill-rule:evenodd;fill-opacity:1" /></svg>