<svg xmlns="http://www.w3.org/2000/svg" height="1487.28" width="5134"><path d="M402 1486.348c-21.868-2.182-49.812-8.085-72.33-15.28-8.764-2.8-11.434-3.283-14-2.53-8.764 2.567-31.246 5.932-46.761 6.997-15.79 1.084-22.105.937-67.909-1.58-55.804-3.067-72.33-2.99-98.5.455-12.947 1.705-20.988 1.978-58.75 1.994l-43.75.02V1406.514l46.75-.374c37.413-.3 48.847-.708 57.25-2.044 19.457-3.095 36.742-3.13 88-.172 57.506 3.317 64.476 2.946 105-5.586l10.5-2.211 18.505 4.099c57.83 12.81 92.14 16.444 134.746 14.273 23.989-1.223 38.916-2.861 55.616-6.104 9.15-1.776 14.499-1.968 55.133-1.973 31.569 0 49.626-.441 60.5-1.462 22.24-2.088 54.72-4.33 83-5.73 31.986-1.583 141.954-1.613 170.5-.046 12.1.664 46.975 1.874 77.5 2.688 30.525.814 59.325 1.736 64 2.047 4.675.312 66.775.551 138 .532 150.492-.04 180.481.639 359.5 8.146 63.269 2.653 166.686 3.123 210 .953 51.477-2.578 48.958-2.33 49.313-4.832l.314-2.204 46.686-.374c37.354-.299 48.786-.707 57.187-2.044 19.457-3.095 36.742-3.129 88-.172 57.506 3.317 64.476 2.947 105-5.586l10.5-2.21 18.505 4.098c35.764 7.922 65.167 12.684 85.5 13.845l11.495.656v-8.212l46.75-.374c37.413-.3 48.847-.708 57.25-2.045 19.457-3.095 36.742-3.129 88-.172 57.506 3.317 64.476 2.947 105-5.586l10.5-2.21 18.5 4.096c22.747 5.038 42.264 8.692 60 11.234 14.795 2.121 54.722 4.669 57.352 3.66 1.15-.441 1.648-1.839 1.648-4.618v-3.985l46.75-.374c37.413-.3 48.847-.708 57.25-2.045 19.457-3.095 36.742-3.129 88-.172 57.506 3.317 64.476 2.947 105-5.586l10.5-2.21 18.505 4.098c21.555 4.775 46.88 9.48 62.495 11.61 36.529 4.984 85.062 4.085 119.5-2.213l14.5-2.652 75.5-.594c63.8-.501 77.127-.854 86-2.272 19.414-3.104 36.707-3.14 88-.18 57.506 3.316 64.476 2.946 105-5.587l10.5-2.21 18.5 4.096c54.766 12.128 93.806 16.479 130.5 14.543l16-.844.31-3.75.31-3.75h43.69c30.444 0 48.39-.445 59.19-1.459 22.24-2.088 54.72-4.33 83-5.73 32.181-1.593 141.906-1.611 171-.029 12.375.673 46.575 1.893 76 2.711 29.425.818 66.55 2.003 82.5 2.634 46.518 1.84 113.495 1.672 144.5-.362 105.563-6.925 262.745-7.557 436-1.756 75.82 2.54 108.112 3.085 217.25 3.673l115.75.622v69.957l-79.75-.553c-76.197-.528-98.798-1.152-205.75-5.676-122.17-5.169-180.734-6.45-259-5.67-34.65.345-75.6 1.073-91 1.617-37.91 1.34-72.877 2.932-79.25 3.61-5.01.533-5.25.691-5.25 3.486v2.928h-86.514c-49.892 0-87.248-.384-88.25-.908-.955-.5-24.911-1.655-53.236-2.57-139.06-4.485-200.53-4.573-308.5-.442-22.965.879-30.255 1.466-31.088 2.504-.881 1.098-9.753 1.415-46.5 1.663-40.86.275-46.815.525-59.412 2.496-60.116 9.405-90.753 10.399-128.34 4.163-14.73-2.444-35.64-7.516-50.308-12.203l-10.648-3.402-10.21 2.295c-5.615 1.262-15.448 2.973-21.852 3.802-22.761 2.948-35.074 2.962-86.642.1-53.112-2.95-73.354-2.91-94 .181-9.145 1.37-23.904 1.752-87.5 2.266-71.977.582-77.328.748-90.5 2.803-60.267 9.406-90.755 10.394-128.34 4.158-14.73-2.443-35.64-7.515-50.308-12.202l-10.648-3.403-10.21 2.295c-27.746 6.237-49.829 7.245-98.494 4.496-45.195-2.553-41.5-2.542-41.5-.12 0 1.928-.995 1.977-45.75 2.275-41.215.275-47.138.522-59.75 2.496-60.108 9.405-90.753 10.4-128.34 4.163-14.73-2.443-35.64-7.515-50.308-12.202l-10.648-3.403-10.244 2.303c-29.504 6.632-57.66 7.599-109.71 3.767-7.127-.524-8.25-.39-8.25.982 0 1.425-4.737 1.621-45.75 1.894-41.215.275-47.138.522-59.75 2.496-60.108 9.405-90.753 10.4-128.34 4.163-14.73-2.443-35.64-7.515-50.308-12.202l-10.648-3.403-10.21 2.295c-13.174 2.961-30.157 5.141-46.494 5.968-11.5.582-56.914-1.192-80.32-3.138-6.843-.57-7.355-.473-7.866 1.483l-.547 2.092H1510.87c-267.399 0-447.595-.367-448.634-.913-3.484-1.83-157.84-6.022-222.736-6.048-52.3-.02-174.195 3.532-191.5 5.581-3.025.359-32.725.98-66 1.38-54.242.654-61.897.946-74 2.83-35.78 5.568-52.484 7.286-74.5 7.664-12.1.208-26.275-.049-31.5-.57zM155.35 1348.83c-27.799-19.778-40.364-43.73-43.32-82.578-1.609-21.128.709-40.873 7.492-63.83 4.774-16.158 6.55-27.193 7.161-44.5.619-17.52-.671-25.036-10.081-58.737l-5.511-19.737.935-42.263c1.11-50.144 1.81-65.172 7.556-162.263 2.962-50.05 2.844-55.547-2.6-121.5-4.77-57.786-12.27-174.213-16.073-249.5-1.716-33.96-1.715-94.859 0-112.5 2.944-30.271 1.619-54.029-4.495-80.552-10.788-46.798-12.265-79.491-4.88-107.948 2.81-10.824 7.11-21.633 11.631-29.23 6.268-10.532 21.018-23.76 33.668-30.193l4.335-2.204 6.665 3.971c47.29 28.176 92.345 73.682 188.272 190.156 36.67 44.524 60.164 71.192 90.74 103l11.055 11.5.023-4.5c.013-2.475-.422-11.475-.965-20-1.965-30.825-2.912-84.044-1.945-109.341 2.004-52.459 8.021-98.303 16.595-126.432 6.453-21.172 20.205-47.89 25.394-49.333 4.61-1.283 15.315-.908 21.194.741 6.73 1.889 13.533 7.305 17.225 13.714 3.257 5.654 8.096 21.283 10.13 32.717 2.786 15.663 1.369 65.321-4.55 159.434-1.625 25.85-4.329 70.85-6.007 100a36830.11 36830.11 0 0 1-6.008 101.5c-6.576 107.886-6.634 102.408 3.514 329.5 8.993 201.245 12.11 285.681 15.484 419.5l.946 37.5-4.094 3.75c-4.87 4.46-11.8 6.76-20.27 6.726-14.204-.056-27.803-9.779-49.432-35.344-7.588-8.97-8.958-12.52-14.523-37.632-13.698-61.813-14.602-125.802-4.153-294 4.334-69.752 4.83-83.748 4.231-119.396-.576-34.307-1.921-54.266-3.914-58.057-.592-1.126-5.297-8.467-10.457-16.313-31.158-47.38-67.793-87.383-114.32-124.83-33.4-26.88-71.827-53.241-105.382-72.291-5.934-3.369-11.151-5.902-11.594-5.628-1.683 1.04-6.035 13.76-7.934 23.19-5.399 26.808-5.35 72.785.131 123.308 2.041 18.809 2.143 25.757 2.817 191.517.598 146.911.938 174.698 2.335 190.5 2.259 25.562 3.253 95.775 1.706 120.5-3.844 61.42-10.462 92.403-24.577 115.049-2.537 4.07-4.993 7.636-5.457 7.923-.464.287-4.377-1.992-8.694-5.064zM435.99 600.81c-5.088-61.595-5.12-61.868-7.734-65.37-5.533-7.411-16.89-17.33-29.284-25.573-14.846-9.874-21.51-16.602-26.347-26.603l-3.397-7.022-7.97-3.214c-26.533-10.698-43.717-26.392-75.828-69.251-17.828-23.796-22.306-29.214-34.896-42.218-18.134-18.732-30.824-25.67-57.715-31.552-2.617-.572-2.72-.41-4.266 6.665-4.214 19.294-4.783 26.7-5.626 73.252-.458 25.3-1.27 48.475-1.807 51.5-1.749 9.875-1.709 10 3.22 10 10.665 0 28.067 6.68 48.366 18.566 12.547 7.348 24.52 15.513 57.294 39.072 26.662 19.166 39.997 27.796 52 33.655 5.159 2.519 9.395 6.066 20.53 17.19 13.44 13.428 18.784 19.68 37.537 43.916 14.713 19.016 40.017 44.121 40.73 40.412.167-.864-1.996-29.405-4.806-63.425zm566.51 752.413c-7.873-2.846-11.736-8.584-15.994-23.759-4.701-16.753-7.662-21.838-16.105-27.653l-5.401-3.72v-7.083c.01-15.752 2.206-68.738 5.498-132.584 5.768-111.885 8.847-179.051 13.958-304.5 5.491-134.783 6.517-177.294 6.528-270.5.01-84.616-1.494-136.173-6.504-223-.81-14.025-1.475-27.04-1.478-28.922 0-2.734-.89-4.268-4.41-7.64-8.412-8.06-16.863-8.1-28.68-.131-12.831 8.65-16.383 10.604-21.333 11.735-5.791 1.322-5.299.846-28.381 27.458-18.559 21.396-30.772 36.592-50.12 62.363-27.865 37.111-51.871 61.742-82.055 84.187-8.32 6.187-9.64 8.388-14.002 23.363-5.324 18.279-9.92 30.46-17.007 45.087-7.797 16.089-13.815 24.772-20.925 30.19l-6.967 5.31c-1.779 1.355-2.076 3.527-3.081 22.5-.612 11.55-2.435 36.975-4.052 56.5-6.343 76.598-14.348 199.704-19.053 293-1.715 34.014-2.373 151.995-1.04 186.5 2.194 56.777 5.505 98.053 10.708 133.5 1.413 9.625 2.794 19.075 3.07 21 .465 3.253.036 3.942-6.09 9.782-3.623 3.456-6.588 7.093-6.588 8.084 0 2.903-.878 3.068-6.338 1.19-13.631-4.69-26.743-13.57-35.23-23.86-10.995-13.33-18.256-33.5-23.113-64.196-1.492-9.434-1.799-16.98-1.705-42 .122-32.865.06-31.592 10.393-211 12.725-220.919 17.251-316.668 20.99-444 4.008-136.473 4.086-318.88.159-367.988l-.759-9.488 4.04-4.382c10.976-11.908 29.122-23.494 38.813-24.783l4.75-.631v3.412c0 3.627 21.79 338.037 22.237 341.258.18 1.303 5.591-4.807 17.263-19.495 32.188-40.504 63.025-76.672 100.294-117.631 11.938-13.12 26.02-28.786 31.29-34.813 29.267-33.462 62.368-77.304 90.218-119.494 9.58-14.512 13.353-19.26 21.886-27.53 5.672-5.496 13.131-11.863 16.576-14.148 12.832-8.51 28.77-12.21 39.617-9.198 8.84 2.454 18.51 16.98 24.005 36.061 4.54 15.763 4.844 21.46 3.177 59.562-7.013 160.305-10.07 292.174-11.56 498.646-1.471 204.008-3.545 318.341-8.508 469.142-.797 24.2-1.745 53.45-2.107 65l-.658 21-3.3 5.5c-3.212 5.356-5.847 12.486-8.975 24.291-1.681 6.344-6.312 12.331-12.616 16.31-4.726 2.984-7.616 3.544-11.34 2.198zm887.158-1.05c-2.098-8.451-7.93-42.497-10.062-58.75-5.27-40.159-7.492-75.11-8.266-130-1.087-77.142 2.47-160.323 11.161-261 6.476-75.018 8.881-117.14 10.581-185.347 1.919-76.952-1.362-139.92-9.478-181.91l-2.273-11.758 13.106-20.242c80.968-125.05 168.549-237.706 284.24-365.624l4.867-5.382 6.195 3.127c7.08 3.574 12.863 8.917 14.883 13.75 3.058 7.32 1.097 21.102-4.977 34.977-1.904 4.35-4.288 10.61-5.298 13.91-2.086 6.814-2.072-.727-.341 182 .531 56.1 1.216 188.625 1.522 294.5.74 255.89 2.093 372.412 6.02 518.5.813 30.25 1.756 67.6 2.096 83l.618 28-3.08 2.892c-2.263 2.127-4.36 3.016-7.92 3.358-4.538.436-6.125-.177-25.297-9.755-11.25-5.62-20.623-10.374-20.827-10.562-.811-.75-5.409-19.847-8.697-36.125-20.494-101.466-21.11-244.154-2.428-563.308 12.6-215.244 13.366-258.116 6.376-356.779l-.657-9.279-6.111-3.385c-8.365-4.633-15.587-6.56-24.543-6.545-19.334.03-33.26 9.114-43.28 28.233-2.61 4.978-25.2 36.634-56.917 79.755l-52.59 71.5-1.18 47.5c-1.432 57.655-6.362 250.25-9.086 355-3.14 120.753-5.004 203.85-8.03 358-.976 49.708-.96 50.54 1.002 53 11.3 14.172 11.354 28.135.145 38.262-7.027 6.348-8.676 6.807-27.98 7.785-24.34 1.232-22.845 1.315-23.494-1.297zm433.335 1.372c-10.56-3.447-18.224-13.06-26.109-32.751l-3.15-7.866.676-16.502c.371-9.076 1.77-34.052 3.108-55.502 4.854-77.831 6.563-106.687 11.958-202 11.278-199.257 15.836-292.967 21.5-442 7.239-190.437 6.396-319.613-2.571-394-1.673-13.877-5.86-36.939-7.483-41.205-1.881-4.949 3.001-14.453 9.434-18.365 1.719-1.046 6.504-2.64 10.634-3.545 4.13-.905 10.967-2.894 15.191-4.42 8.827-3.19 7.671-3.729 14.791 6.905 15.802 23.599 29.028 68.215 35.463 119.63 2.426 19.383 3.442 37.788 4.14 75 .542 28.868.375 37.452-.952 49-4.807 41.836-6.463 76.524-7.629 159.751-.95 67.772-1.583 86.079-4.508 130.249-1.976 29.85-1.858 29.203-5.476 29.998-4.451.977-8.65 6.455-10.025 13.075-1.201 5.785-.83 12.521 1.219 22.178l1.115 5.25 9.695 5.958c23.16 14.232 41.468 28.627 62.352 49.023 40.437 39.492 79.22 88.417 131.934 166.439 20.56 30.433 41.572 59.8 56.297 78.688l7.491 9.609-1.628 7.39c-2.528 11.473-9.152 24.235-16.95 32.658-12.772 13.796-30.945 28.218-59.51 47.228-17.926 11.931-28.687 20.583-35.462 28.513-3.896 4.56-6.533 6.44-14.08 10.038-26.463 12.616-38.966 24.465-88.069 83.455-25.354 30.46-45.46 52.45-57.144 62.5-19.55 16.815-46.135 28.924-56.251 25.621zm69.292-126.77c69.568-48.86 124.247-97.97 167.087-150.072 4.581-5.572 6.497-8.653 5.944-9.561-.449-.738-8.04-10.988-16.868-22.78-8.829-11.79-19.827-26.838-24.44-33.438-40.665-58.177-74.009-94.937-106.508-117.422-10.425-7.214-31.774-19.204-32.644-18.334-1.062 1.062-7.424 23.448-10.277 36.16-10.098 45-12.797 99.505-8.148 164.596 3.14 43.966 6.65 109.613 7.26 135.796.517 22.158.863 26.705 2.002 26.268.757-.29 8.223-5.337 16.592-11.214zM4178.5 1353.221c-7.873-2.846-11.736-8.584-15.994-23.759-4.701-16.753-7.662-21.838-16.105-27.653l-5.401-3.72v-7.083c.01-15.752 2.206-68.738 5.498-132.584 5.768-111.885 8.847-179.051 13.958-304.5 5.491-134.783 6.517-177.294 6.528-270.5.01-84.616-1.494-136.173-6.504-223-.81-14.025-1.475-27.04-1.478-28.922 0-2.734-.89-4.268-4.41-7.64-8.412-8.06-16.863-8.1-28.68-.131-12.831 8.65-16.383 10.604-21.333 11.735-5.791 1.322-5.299.846-28.381 27.458-18.559 21.396-30.772 36.592-50.12 62.363-27.865 37.111-51.872 61.742-82.055 84.187-8.32 6.187-9.64 8.388-14.002 23.363-5.325 18.279-9.92 30.46-17.008 45.087-7.796 16.089-13.814 24.772-20.924 30.19l-6.967 5.31c-1.779 1.355-2.076 3.527-3.081 22.5-.612 11.55-2.435 36.975-4.052 56.5-6.344 76.598-14.349 199.704-19.053 293-1.715 34.014-2.373 151.995-1.04 186.5 2.194 56.777 5.504 98.053 10.708 133.5 1.412 9.625 2.794 19.075 3.07 21 .464 3.253.036 3.942-6.09 9.782-3.623 3.456-6.588 7.093-6.588 8.084 0 2.903-.878 3.068-6.339 1.19-13.63-4.69-26.742-13.57-35.23-23.86-10.994-13.33-18.256-33.5-23.112-64.196-1.492-9.434-1.799-16.98-1.705-42 .122-32.865.06-31.592 10.393-211 12.725-220.919 17.251-316.668 20.99-444 4.007-136.473 4.086-318.88.159-367.988l-.759-9.488 4.04-4.382c10.976-11.908 29.122-23.494 38.813-24.783l4.75-.631v3.412c0 3.627 21.79 338.037 22.237 341.258.18 1.303 5.59-4.807 17.263-19.495 32.188-40.504 63.025-76.672 100.294-117.631 11.938-13.12 26.02-28.786 31.29-34.813 29.267-33.462 62.368-77.304 90.218-119.494 9.58-14.512 13.353-19.26 21.886-27.53 5.672-5.496 13.13-11.863 16.576-14.148 12.832-8.51 28.77-12.21 39.617-9.198 8.84 2.454 18.51 16.98 24.005 36.061 4.54 15.763 4.844 21.46 3.177 59.562-7.013 160.305-10.07 292.174-11.56 498.646-1.471 204.008-3.545 318.341-8.508 469.142-.797 24.2-1.745 53.45-2.107 65l-.658 21-3.3 5.5c-3.212 5.356-5.847 12.486-8.975 24.291-1.682 6.344-6.312 12.331-12.616 16.31-4.726 2.984-7.616 3.544-11.34 2.198zm-1010.5-6.589c0-6.19-1.955-15.196-4.712-21.71-3.424-8.092-8.812-15.202-21.229-28.014-14.646-15.114-36.707-42.25-47.693-58.67-5.121-7.652-13.974-24.3-27.348-51.424-10.877-22.06-22.346-44.785-25.487-50.5-7.296-13.274-22.416-36.087-30.75-46.392-12.547-15.518-31.438-31.225-47.094-39.159l-4.98-2.524-5.334 5.842c-7.92 8.675-17.131 20.393-23.715 30.168-6.865 10.193-26.435 49.508-40.155 80.673-5.327 12.1-13.91 30.325-19.074 40.5-18.051 35.571-28.651 51.084-49.044 71.77l-12.115 12.289-.694 8.72c-.382 4.797-1.533 12.589-2.557 17.316-4.38 20.213-10.332 25.84-27.375 25.883-10.12.025-18.47-1.852-26.68-5.997-10.862-5.482-13.57-11.394-12.609-27.513 1.706-28.573 13.592-52.4 51.502-103.246 16.481-22.105 21.557-30.531 27.243-45.222 7.372-19.05 14.58-30.51 47.798-76 24.209-33.153 34.804-49.422 42.656-65.5 21.61-44.25 13.464-83.821-24.054-116.842-8.932-7.861-9.053-8.031-16.076-22.54-3.892-8.04-11.371-21.818-16.621-30.618-26.867-45.034-39.647-71.202-48.597-99.5-4.93-15.59-8.206-35.284-8.206-49.338v-6.89l10.342-10.793c19.816-20.68 43.234-50.483 58.068-73.904 6.41-10.12 70.404-117.121 73.447-122.807.931-1.74.654-3.51-1.481-9.455-3.163-8.804-8.52-19.676-12.718-25.813-1.694-2.475-8.96-10.575-16.146-18-7.186-7.425-17.168-18.409-22.18-24.408-8.146-9.748-9.35-11.716-11.315-18.5-7.527-25.975-20.64-51.53-49.727-96.916-28.605-44.633-42.495-72.15-50.684-100.409-4.622-15.947-5.451-13.426 9.374-28.495 7.158-7.276 14.814-14.147 17.014-15.269 5.994-3.058 11.854-3.54 18.138-1.494 4.563 1.486 7.024 3.416 16.414 12.87 32.735 32.96 57.593 67.884 82.006 115.216 19.225 37.273 32.489 61.24 48.926 88.405 15.339 25.35 23.72 38 25.178 38 1.803 0 12.392-5.201 16.674-8.19 19.532-13.635 33.28-32.869 84.11-117.665 20.355-33.956 39.19-61.04 57.379-82.508 17.816-21.029 37.415-32.163 58.632-33.31 8.08-.438 9.53-.24 13.549 1.841 3.626 1.88 5.083 3.497 7.5 8.332 2.905 5.81 3 6.444 3 20 0 16.818-.78 19.534-10.023 34.924-12.235 20.372-22.24 32.369-53.448 64.098-42.655 43.367-58.538 60.905-76.054 83.978-27.955 36.823-38.312 60.526-42.036 96.207l-1.17 11.207 12.293 20.293c47.258 78.011 81.701 126.017 118.227 164.781 9.098 9.655 12.582 14.157 15.259 19.715 9.39 19.494 8.336 33.767-3.845 52.1-4.823 7.26-17.916 20.995-42.207 44.279-19.893 19.07-50.288 50.626-57.712 59.918-19.522 24.434-42.59 61.345-58.926 94.284l-5.348 10.784 7.184 14.216c13.84 27.392 28.713 52.35 64.482 108.216 78.23 122.18 109.676 184.67 127.307 252.98 3.435 13.31 3.522 14.045 1.813 15.332-3.411 2.57-16.915 9.015-23.345 11.144-7.25 2.4-23.012 5.03-30.201 5.038l-4.75.01v-5.79zM2978.721 878.31c13.47-14.91 40.943-50.297 60.468-77.887 20.57-29.066 39.485-59.407 53.399-85.653l5.912-11.153-3.256-3.847c-7.836-9.258-15.786-20.175-28.287-38.847-23.422-34.984-44.34-61.085-58.212-72.635-11.391-9.485-25.158-14.165-34.838-11.843-6.867 1.648-16.62 8.922-28.985 21.617-20.262 20.803-39.64 47.96-51.989 72.858-8.605 17.35-11.313 27.023-10.499 37.503 2.058 26.483 13.298 47.978 58.613 112.09 22.765 32.208 28.176 41.795 31.991 56.681.737 2.876 1.481 5.229 1.654 5.229.172 0 1.985-1.85 4.03-4.113zm363.779 469.223c-2.2-1.015-4.99-2.924-6.201-4.24-5.686-6.185-9.638-21.613-11.428-44.605-1.873-24.055.262-44.048 10.706-100.282l5.662-30.483.854-31.5c.47-17.325 1.539-51.75 2.375-76.5 3.136-92.837 3.832-141.45 3.82-267-.012-142.41-1.129-200.924-5.322-279-4.16-77.438-11.33-154.165-19.673-210.5-1.996-13.475-3.658-26.975-3.695-30-.104-8.613 3.33-54.355 4.955-66 3.878-27.787 12.446-43.547 25.835-47.523 9.175-2.724 22.672-1.38 33.726 3.357l4.596 1.97 1.616 8.848c2.88 15.77 9.54 60.251 12.628 84.348 18.62 145.298 21.969 288.197 10.004 426.81-.537 6.22-1.405 20.642-1.928 32.048-.524 11.406-1.95 28.591-3.17 38.19-3.056 24.05-3.336 72.655-.514 89.422 2.15 12.777 5.466 24.894 9.778 35.736l3.065 7.706 6.431-2.421c10.756-4.049 22.87-10.358 33.997-17.706 11.589-7.654 26.083-21.387 42.747-40.5 19.441-22.3 51.096-49.004 67.79-57.187 4.6-2.254 15.978-9.76 25.346-16.719 20.244-15.038 37.587-26.63 43.87-29.324 18.102-7.759 38.164-3.111 42.494 9.844 4.664 13.956-6.218 39.714-24.391 57.733-8.18 8.11-15.768 12.22-27.335 14.8-9.068 2.023-17.81 5.515-24.533 9.798-5.82 3.708-22.192 17.59-37.605 31.887-25.089 23.272-39.557 33.401-54.77 38.344-4.065 1.321-5.633 2.435-6.865 4.876-3.279 6.497-12.622 17.831-19.113 23.185-6.825 5.63-16.143 10.69-31.045 16.86-11.905 4.93-24.266 12.98-33.194 21.618l-7.753 7.5-3.094 13c-11.803 49.593-15.78 84.042-14.878 128.874.654 32.54 3.329 57.028 10.226 93.626 2.621 13.908 7.245 35.763 8.008 37.853.325.89 3.824-1.7 10.236-7.578 17.466-16.012 31.337-27.547 74.367-61.841 48.507-38.66 60.656-48.731 80.875-67.046 33.471-30.318 51.483-50.803 68.444-77.837 3.088-4.922 6.81-9.734 8.272-10.693 3.802-2.494 14.832-4.216 23.416-3.655 12.496.816 19.185 5.971 21.883 16.868 1.325 5.348-.063 11.912-5.493 25.997-7.35 19.06-16.293 32.498-33.415 50.21-17.466 18.068-27.625 26.557-68.988 57.646-44.991 33.816-56.675 44.777-71.742 67.303-3.678 5.497-6.089 7.76-13.189 12.378-14.754 9.595-20.647 14.797-53.688 47.395-32.653 32.215-46.788 44.229-63.631 54.085-17.146 10.033-41.186 14.725-51.369 10.025zm-1871.758-9.403c-9.215-3.224-19.346-10.391-28.275-20.003l-7.467-8.037V981.917c0-321.2-.041-328.335-1.935-335.738-4.994-19.529-13.812-28.687-44.185-45.892-26.65-15.095-32.928-20.323-38.32-31.905-1.397-3.003-2.545-5.99-2.55-6.639-.03-3.49-55.882-46.415-86.224-66.267-11.393-7.454-29.168-19.088-39.5-25.852-19.714-12.907-39.943-27.372-60.204-43.05l-12.082-9.35.033-11.65.033-11.651 11.717-10.744c17.779-16.301 48.466-46.797 93.77-93.182 44.385-45.446 63-63.31 85.447-82 44.734-37.248 80.419-58.517 121.993-72.712l8.492-2.9 13.008 8.753c31.787 21.389 48.478 34.987 125.1 101.914 76.44 66.77 113.033 93.975 155.045 115.27 11.883 6.024 12.184 6.26 14.315 11.212 3.47 8.065 5.288 19.267 4.63 28.524-1.265 17.829-7.59 29.337-25.794 46.932-12.832 12.403-20.96 19.052-52.789 43.185-20.824 15.79-32.6 26.415-40.586 36.62-2.613 3.337-3.795 3.99-8.582 4.741-52.396 8.217-108.45 61.11-157.372 148.502l-6.223 11.115 1.805 21.385c7.351 87.094 8.933 163.896 8.948 434.267.01 181.012-.01 182.915-1.985 186.11-5.5 8.9-17.362 11.728-30.262 7.215zm50.582-789.621c15.159-7.363 32.576-17.728 47.066-28.01 10.726-7.61 14.832-10.825 41.704-32.654 23.401-19.01 53.697-40.236 74.873-52.458 8.111-4.68 9.251-5.711 11.575-10.461 6.333-12.942 3.646-23.404-8.347-32.509-5.866-4.454-15.197-9.35-49.897-26.179-4.51-2.188-10.301-5.826-12.868-8.085-2.566-2.26-9.9-6.654-16.298-9.765-14.842-7.22-29.701-17.25-43.632-29.453-12.694-11.12-18.592-15.233-28.728-20.035-7.64-3.62-21.06-7.477-26.011-7.477-2.657 0-2.868.248-2.35 2.75 4.719 22.747 5.466 76.007 1.77 126.25-4.668 63.484-5.453 134-1.49 134 .25 0 5.936-2.662 12.633-5.914zM1430 530.462c0-1.013 2.444-14.374 5.431-29.69 7.396-37.919 7.96-43.723 7.265-74.849-.745-33.423-4.093-70.579-10.272-114-2.751-19.336-9.325-53.679-11.915-62.25l-1.587-5.25h-30.004l-11.788 10.345c-15.73 13.804-25.52 21.483-58.13 45.593-15.125 11.182-31.325 23.507-36 27.389-19.336 16.053-33.535 31.547-44.52 48.578-3.982 6.171-4.54 7.587-3.35 8.5.785.602 12.669 10.095 26.408 21.095 28.796 23.055 37.374 29.629 111.962 85.801 30.25 22.781 55.337 41.231 55.75 41 .412-.23.75-1.248.75-2.262zm2951.5 781.87l-44-20.728.29-16.84c.324-18.839 1.3-51.493 4.192-140.341 7.738-237.648 9.539-416.397 5.98-593.5-3.035-151.137-7.786-234.622-18.485-324.891l-2.476-20.891 16.125-30.609c8.868-16.835 16.458-30.976 16.866-31.425.96-1.06 18.057 5.34 29.251 10.948 20.093 10.068 32.885 19.554 49.448 36.67 32.304 33.381 59.485 76.088 100.135 157.334 3.89 7.774 10.521 20.15 14.736 27.5 10.09 17.597 27.61 44.109 28.504 43.134.914-.995 5.331-16.364 7.839-27.27 3.586-15.599 5.19-31.263 6.095-59.5.964-30.053 2.606-48.657 6.527-73.945 1.36-8.77 2.473-17.515 2.473-19.436 0-10.669 9.06-32.064 18.285-43.178 16.067-19.358 35.809-19.359 45.683 0l2.056 4.029-3.512 93.145c-1.932 51.23-3.512 93.35-3.512 93.601 0 1.275 22.491-17.497 40.5-33.804 19.128-17.32 45.01-43.905 69.512-71.401 35.551-39.897 67.216-72.639 100.603-104.024 13.545-12.733 15.773-14.431 21.444-16.347 11.481-3.877 20.132-2.468 27.937 4.55 2.636 2.37 6.135 6.447 7.776 9.06 3.394 5.406 2.671-2.225 8.217 86.753 17.914 287.373 23.256 588.656 15.523 875.5-3.158 117.137-4.65 166.633-5.116 169.75-.48 3.201-.567 3.25-5.836 3.25-6.654 0-16.606-3.005-22.65-6.84-4.817-3.057-7.082-5.576-16.78-18.66-5.765-7.779-17.646-19.963-23.546-24.149l-2.917-2.069 1.218-69.89c.67-38.44 1.861-98.692 2.647-133.892 2.456-110.045 3.71-233.443 3.05-300-1.809-182.04-6.966-292.37-19.61-419.491-2.82-28.358-3.04-29.646-5.716-33.5-4.081-5.879-10.306-8.794-17.329-8.115-3.064.296-8.18 1.536-11.367 2.756-5.178 1.982-8.32 4.723-29.543 25.784-13.062 12.961-28.118 28.474-33.456 34.472-43.508 48.88-65.164 87.917-67.266 121.25l-.578 9.155-19.858 7.744-19.859 7.745v5.742c0 3.157.665 19.853 1.478 37.1 5.832 123.792 9.316 246.84 11.546 407.858.537 38.775 1.439 96.825 2.004 129 .903 51.388 1.615 85.262 4.615 219.633l.673 30.133-5.616 1.633c-10.331 3.003-21.269 3.965-30.468 2.678-19.106-2.673-35.615-11.92-44.71-25.045l-2.841-4.1.643-64.716c.608-61.203 1.226-89.127 3.69-166.716 1.198-37.753 4.325-119.836 6.494-170.5 2.943-68.745 3.533-104.387 2.492-150.74-2.27-101.165-7.553-165.889-19.529-239.26-1.93-11.825-3.89-22.403-4.358-23.506-.466-1.104-5.295-4.776-10.73-8.162-30.724-19.136-52.057-37.949-90.058-79.42-16.563-18.077-38.973-39.238-60.825-57.437l-14-11.66-.678 23.843c-2.001 70.342-2.936 110.657-3.82 164.842-.538 33-1.448 86.55-2.022 119-.574 32.45-1.471 83.75-1.994 114-2.074 119.976-.58 256.095 4.027 367 3.325 80.043 8.59 143.724 16.56 200.277 1.417 10.052 2.43 18.633 2.251 19.068-.178.435-20.124-8.536-44.324-19.936zM1747.896 996.498c-10.09-3.751-17.022-8.32-27.616-18.2-10.19-9.504-20.784-18.114-27.533-22.378-2.609-1.648-4.744-3.5-4.745-4.113 0-.613 1.658-4.438 3.686-8.5 2.672-5.35 5.914-9.613 11.766-15.471 19.779-19.803 41.592-20.291 48.923-1.096 1.72 4.506 1.727 4.944.114 8.344-2.17 4.57-1.671 15.234.966 20.683 1.023 2.114 4.678 6.915 8.122 10.668 6.936 7.558 8.363 9.796 9.523 14.942.984 4.36-1.375 10.165-6.017 14.807-4.057 4.057-6.979 4.11-17.19.314zM3549.33 533.234c-3.944-2.14-12.494-5.828-19-8.195-29.258-10.643-42.523-21.151-49.187-38.963-4.474-11.958-5.193-10.27 11.933-28.002 16.17-16.742 20.607-20.373 28.882-23.635 7.284-2.87 19.05-4.464 20.61-2.79 2.563 2.753 41.432 76.99 41.432 79.134 0 4.565-3.194 11.603-6.638 14.627-1.91 1.676-7.384 4.998-12.167 7.381l-8.695 4.334zM2540.5 497.17c-38.597-28.378-46.103-34.992-53.208-46.88-3.519-5.888-6.292-15.173-6.292-21.066 0-3.716.131-3.845 7.85-7.725 6.938-3.489 14.715-8.428 31.49-20 6.296-4.344 16.57-7.868 25.3-8.68l6.967-.647 3.586 7.876c13.651 29.976 15.564 62.11 5.194 87.244-3.939 9.547-8.383 18.176-9.296 18.048-.325-.045-5.541-3.721-11.591-8.17zM244 78.916c-44.825-2.43-83.075-4.2-85-3.934-1.925.266-15.65.935-30.5 1.487s-29.25 1.416-32 1.919c-2.75.504-25.587.943-50.75.975L0 79.423V10.224l58.25.515c32.038.284 65.45.982 74.25 1.552 54.38 3.523 144.66 3.75 232.5.588 50.114-1.805 204.507-3.814 242-3.15 23.564.418 31.617.958 46.5 3.116 39.452 5.722 31.122 5.897 206.43-4.349C992.973.72 1017.716-.497 1025.43.356c4.988.551 18.52 1.471 30.07 2.045 11.55.573 30 1.5 41 2.06s28.325 1.963 38.5 3.117c17.864 2.027 21.526 2.079 106.5 1.501 90.781-.617 118.756-1.288 194-4.654C1522.63.527 1546.537.007 1639 0c107.884-.01 157.513 1.705 207 7.146 10.556 1.16 27.743 1.703 63.188 1.996l48.689.401.311 2.19c.31 2.172.556 2.198 29.312 3.1 32.044 1.004 129.314-.471 191.5-2.905 24.28-.95 67.049-1.44 127.75-1.466 88.93-.037 91.25.01 91.25 1.857 0 1.742 1.2 1.957 14.75 2.644 19.38.982 109.511-.247 158.75-2.164 24.539-.956 77.972-1.721 144.103-2.064 104.455-.542 105.106-.533 105.625 1.453.505 1.932 1.696 2.022 36.298 2.743 41.072.855 101.243.026 158.974-2.192 52.186-2.005 296.248-3.069 326-1.42 54.939 3.043 74.115 3.52 139 3.464 37.95-.033 82.725-.585 99.5-1.226 95.62-3.655 169.724-4.76 232.75-3.47l32.25.66v2.2c0 1.912.689 2.28 5.25 2.8 19.126 2.184 29.107 1.79 184.68-7.276C4168.91.72 4193.72-.496 4201.43.356c4.988.551 18.52 1.472 30.07 2.046 53.594 2.663 63.088 3.274 78.999 5.086 16.534 1.882 28.012 1.935 420.25 1.935H5134V79.604l-52.25-.62c-124.852-1.48-139.569-1.932-159.25-4.89-66.516-9.993-134.002-14.347-206.5-13.324-61.614.87-101.037 2.929-165.5 8.645-48.027 4.26-62.892 5.317-115.5 8.215-11.275.622-59.763 1.284-107.75 1.472l-87.25.343v-6.711l-14.25-.652c-43.338-1.982-121.356.17-176.75 4.874-60.06 5.102-110.282 6.82-180.5 6.179-40.511-.37-55.828-.86-65-2.077-9.369-1.244-21.467-1.598-55.18-1.614l-43.18-.02-.32-2.25c-.304-2.139-.695-2.235-7.82-1.94-4.125.17-12.675.995-19 1.83-6.325.837-23.2 1.922-37.5 2.412s-29.81 1.333-34.466 1.873c-22.387 2.597-37.757 2.316-126.803-2.312-47.998-2.495-87.823-4.335-88.5-4.089-.677.247-13.831.915-29.231 1.486-15.4.57-30.25 1.45-33 1.954s-38.075.94-78.5.97c-70.66.052-74.04-.03-87.5-2.12-17.965-2.792-46.107-2.96-64-.382-6.6.951-23.7 2.13-38 2.62-14.3.49-29.736 1.326-34.303 1.857-22.094 2.569-37.321 2.332-117.448-1.825-93.165-4.833-87.749-4.704-87.749-2.085 0 1.984-.667 2-84.417 2-61.2 0-84.519-.307-84.788-1.115-.273-.82-3.083-.82-10.623 0-5.638.613-17.095 1.116-25.461 1.117-8.366 0-21.342.649-28.836 1.439-28.583 3.015-41.493 2.917-113.676-.864-79.33-4.154-75.199-4.04-75.199-2.096 0 1.3-13.546 1.484-110.25 1.498-88.426.013-112.922.3-123.75 1.444-29.276 3.094-40.087 2.977-123.25-1.338-43.314-2.246-79.651-4.085-80.75-4.085-1.333 0-2 .667-2 2 0 1.997-.667 2-447.5 2H1063v-6.69l-13.658-.655c-41.848-2.007-121.09.185-176.342 4.878-60.06 5.101-110.282 6.82-180.5 6.179-40.511-.37-55.828-.86-65-2.077-9.445-1.254-21.689-1.599-57.5-1.62-41.684-.023-46.674-.208-59.5-2.2-17.965-2.792-46.107-2.96-64-.382-6.6.951-23.7 2.132-38 2.624s-29.6 1.335-34 1.872c-21.132 2.579-46.81 2.1-130.5-2.436z" fill="#C3986B"/></svg>