<svg aria-hidden="true" style="position: absolute; width: 0; height: 0; overflow: hidden;" version="1.1" xmlns="http://www.w3.org/2000/svg" xmlns:xlink="http://www.w3.org/1999/xlink">
<defs>
<symbol id="svgico-nifl" viewBox="0 0 110 32">
<title>nifl</title>
<path d="M8.649 31.98c-0.47-0.047-1.072-0.174-1.556-0.329-0.189-0.060-0.246-0.071-0.301-0.054-0.189 0.055-0.672 0.128-1.006 0.151-0.34 0.023-0.476 0.020-1.461-0.034-1.201-0.066-1.556-0.064-2.119 0.010-0.279 0.037-0.452 0.043-1.264 0.043l-0.941 0v-1.504l1.006-0.008c0.805-0.006 1.051-0.015 1.232-0.044 0.419-0.067 0.791-0.067 1.893-0.004 1.237 0.071 1.387 0.063 2.259-0.12l0.226-0.048 0.398 0.088c1.244 0.276 1.982 0.354 2.899 0.307 0.516-0.026 0.837-0.062 1.197-0.131 0.197-0.038 0.312-0.042 1.186-0.042 0.679 0 1.068-0.009 1.302-0.031 0.479-0.045 1.177-0.093 1.786-0.123 0.688-0.034 3.054-0.035 3.668-0.001 0.26 0.014 1.011 0.040 1.667 0.058s1.276 0.037 1.377 0.044c0.101 0.007 1.437 0.012 2.969 0.011 3.238-0.001 3.883 0.014 7.735 0.175 1.361 0.057 3.586 0.067 4.518 0.020 1.108-0.055 1.053-0.050 1.061-0.104l0.007-0.047 1.005-0.008c0.804-0.006 1.050-0.015 1.23-0.044 0.419-0.067 0.791-0.067 1.893-0.004 1.237 0.071 1.387 0.063 2.259-0.12l0.226-0.048 0.398 0.088c0.77 0.17 1.402 0.273 1.84 0.298l0.247 0.014v-0.177l1.006-0.008c0.805-0.006 1.051-0.015 1.232-0.044 0.419-0.067 0.791-0.067 1.893-0.004 1.237 0.071 1.387 0.063 2.259-0.12l0.226-0.048 0.398 0.088c0.489 0.108 0.909 0.187 1.291 0.242 0.318 0.046 1.177 0.1 1.234 0.079 0.025-0.009 0.035-0.040 0.035-0.099v-0.086l1.006-0.008c0.805-0.006 1.051-0.015 1.232-0.044 0.419-0.067 0.791-0.067 1.893-0.004 1.237 0.071 1.387 0.063 2.259-0.12l0.226-0.048 0.398 0.088c0.464 0.103 1.009 0.204 1.345 0.25 0.786 0.107 1.83 0.088 2.571-0.048l0.312-0.057 1.624-0.013c1.373-0.011 1.659-0.018 1.85-0.049 0.418-0.067 0.79-0.068 1.893-0.004 1.237 0.071 1.387 0.063 2.259-0.12l0.226-0.048 0.398 0.088c1.178 0.261 2.018 0.355 2.808 0.313l0.344-0.018 0.013-0.161h0.94c0.655 0 1.041-0.010 1.274-0.031 0.478-0.045 1.177-0.093 1.786-0.123 0.692-0.034 3.053-0.035 3.679-0.001 0.266 0.014 1.002 0.041 1.635 0.058s1.432 0.043 1.775 0.057c1.001 0.040 2.442 0.036 3.109-0.008 2.271-0.149 5.653-0.163 9.381-0.038 1.631 0.055 2.326 0.066 4.674 0.079l2.49 0.013v1.505l-1.716-0.012c-1.639-0.011-2.126-0.025-4.427-0.122-2.629-0.111-3.889-0.139-5.573-0.122-0.746 0.007-1.627 0.023-1.958 0.035-0.816 0.029-1.568 0.063-1.705 0.078-0.108 0.011-0.113 0.015-0.113 0.075v0.063h-1.861c-1.073 0-1.877-0.008-1.899-0.020-0.021-0.011-0.536-0.036-1.145-0.055-2.992-0.096-4.315-0.098-6.638-0.009-0.494 0.019-0.651 0.032-0.669 0.054-0.019 0.024-0.21 0.030-1 0.036-0.879 0.006-1.007 0.011-1.278 0.054-1.293 0.202-1.953 0.224-2.761 0.090-0.317-0.053-0.767-0.162-1.082-0.263l-0.229-0.073-0.22 0.049c-0.121 0.027-0.332 0.064-0.47 0.082-0.49 0.063-0.755 0.064-1.864 0.002-1.143-0.063-1.578-0.063-2.022 0.004-0.197 0.029-0.514 0.038-1.883 0.049-1.549 0.013-1.664 0.016-1.947 0.060-1.297 0.202-1.953 0.224-2.761 0.089-0.317-0.053-0.767-0.162-1.082-0.263l-0.229-0.073-0.22 0.049c-0.597 0.134-1.072 0.156-2.119 0.097-0.972-0.055-0.893-0.055-0.893-0.003 0 0.041-0.021 0.043-0.984 0.049-0.887 0.006-1.014 0.011-1.286 0.054-1.293 0.202-1.953 0.224-2.761 0.090-0.317-0.053-0.767-0.162-1.082-0.263l-0.229-0.073-0.22 0.050c-0.635 0.143-1.241 0.163-2.361 0.081-0.153-0.011-0.178-0.008-0.178 0.021 0 0.031-0.102 0.035-0.984 0.041-0.887 0.006-1.014 0.011-1.286 0.054-1.293 0.202-1.953 0.224-2.761 0.090-0.317-0.053-0.767-0.162-1.082-0.263l-0.229-0.073-0.22 0.049c-0.283 0.064-0.649 0.111-1 0.128-0.247 0.013-1.225-0.026-1.728-0.068-0.147-0.012-0.158-0.010-0.169 0.032l-0.012 0.045h-9.615c-5.753 0-9.63-0.008-9.653-0.020-0.075-0.039-3.396-0.13-4.792-0.13-1.125-0-3.748 0.076-4.12 0.12-0.065 0.008-0.704 0.021-1.42 0.030-1.167 0.014-1.332 0.020-1.592 0.061-0.77 0.12-1.129 0.157-1.603 0.165-0.26 0.004-0.565-0.001-0.678-0.012zM3.342 29.021c-0.598-0.426-0.868-0.941-0.932-1.777-0.035-0.455 0.015-0.879 0.161-1.373 0.103-0.348 0.141-0.585 0.154-0.957 0.013-0.377-0.014-0.539-0.217-1.264l-0.119-0.425 0.020-0.909c0.024-1.079 0.039-1.402 0.163-3.491 0.064-1.077 0.061-1.195-0.056-2.614-0.103-1.243-0.264-3.748-0.346-5.368-0.037-0.731-0.037-2.041 0-2.421 0.063-0.651 0.035-1.162-0.097-1.733-0.232-1.007-0.264-1.71-0.105-2.323 0.060-0.233 0.153-0.465 0.25-0.629 0.135-0.227 0.452-0.511 0.724-0.65l0.093-0.047 0.143 0.085c1.017 0.606 1.987 1.585 4.051 4.091 0.789 0.958 1.294 1.532 1.952 2.216l0.238 0.247 0.001-0.097c0-0.053-0.009-0.247-0.021-0.43-0.042-0.663-0.063-1.808-0.042-2.353 0.043-1.129 0.173-2.115 0.357-2.72 0.139-0.456 0.435-1.030 0.546-1.061 0.099-0.028 0.329-0.020 0.456 0.016 0.145 0.041 0.291 0.157 0.371 0.295 0.070 0.122 0.174 0.458 0.218 0.704 0.060 0.337 0.029 1.405-0.098 3.43-0.035 0.556-0.093 1.524-0.129 2.152-0.149 2.941-0.195 3.698-0.243 4.456l0.114-2.272c-0.142 2.321-0.143 2.203 0.076 7.089 0.194 4.33 0.261 6.147 0.333 9.026l0.020 0.807-0.088 0.081c-0.105 0.096-0.254 0.145-0.436 0.145-0.306-0.001-0.598-0.21-1.064-0.76-0.163-0.193-0.193-0.269-0.312-0.81-0.295-1.33-0.314-2.707-0.089-6.326 0.093-1.501 0.104-1.802 0.091-2.569-0.012-0.738-0.041-1.168-0.084-1.249-0.013-0.024-0.114-0.182-0.225-0.351-0.67-1.019-1.459-1.88-2.46-2.686-0.719-0.578-1.545-1.146-2.267-1.555-0.128-0.072-0.24-0.127-0.249-0.121-0.036 0.022-0.13 0.296-0.171 0.499-0.116 0.577-0.115 1.566 0.003 2.653 0.044 0.405 0.046 0.554 0.061 4.121 0.013 3.161 0.020 3.759 0.050 4.099 0.049 0.55 0.070 2.061 0.037 2.593-0.083 1.322-0.225 1.988-0.529 2.475-0.055 0.088-0.107 0.164-0.117 0.17s-0.094-0.043-0.187-0.109zM9.381 12.927c-0.109-1.325-0.11-1.331-0.166-1.406-0.119-0.159-0.363-0.373-0.63-0.55-0.319-0.212-0.463-0.357-0.567-0.572l-0.073-0.151-0.171-0.069c-0.571-0.23-0.941-0.568-1.631-1.49-0.384-0.512-0.48-0.629-0.751-0.908-0.39-0.403-0.663-0.552-1.242-0.679-0.056-0.012-0.059-0.009-0.092 0.143-0.091 0.415-0.103 0.574-0.121 1.576-0.010 0.544-0.027 1.043-0.039 1.108-0.038 0.212-0.037 0.215 0.069 0.215 0.229 0 0.604 0.144 1.041 0.399 0.27 0.158 0.528 0.334 1.233 0.841 0.574 0.412 0.861 0.598 1.119 0.724 0.111 0.054 0.202 0.13 0.442 0.37 0.289 0.289 0.404 0.423 0.808 0.945 0.317 0.409 0.861 0.949 0.876 0.87 0.004-0.019-0.043-0.633-0.103-1.365zM21.57 29.116c-0.169-0.061-0.253-0.185-0.344-0.511-0.101-0.36-0.165-0.47-0.346-0.595l-0.116-0.080v-0.152c0-0.339 0.047-1.479 0.118-2.853 0.124-2.407 0.19-3.852 0.3-6.552 0.118-2.9 0.14-3.815 0.14-5.82 0-1.821-0.032-2.93-0.14-4.798-0.017-0.302-0.032-0.582-0.032-0.622 0-0.059-0.019-0.092-0.095-0.164-0.181-0.173-0.363-0.174-0.617-0.003-0.276 0.186-0.352 0.228-0.459 0.253-0.125 0.028-0.114 0.018-0.611 0.591-0.399 0.46-0.662 0.787-1.078 1.342-0.6 0.798-1.116 1.328-1.765 1.811-0.179 0.133-0.207 0.18-0.301 0.503-0.115 0.393-0.213 0.655-0.366 0.97-0.168 0.346-0.297 0.533-0.45 0.65l-0.15 0.114c-0.038 0.029-0.045 0.076-0.066 0.484-0.013 0.248-0.052 0.796-0.087 1.216-0.136 1.648-0.309 4.297-0.41 6.304-0.037 0.732-0.051 3.27-0.022 4.013 0.047 1.222 0.118 2.11 0.23 2.872 0.030 0.207 0.060 0.41 0.066 0.452 0.010 0.070 0.001 0.085-0.131 0.21-0.078 0.074-0.142 0.153-0.142 0.174 0 0.062-0.019 0.066-0.136 0.026-0.293-0.101-0.575-0.292-0.758-0.513-0.237-0.287-0.393-0.721-0.497-1.381-0.032-0.203-0.039-0.365-0.037-0.904 0.003-0.707 0.001-0.68 0.224-4.54 0.274-4.753 0.371-6.813 0.452-9.553 0.086-2.936 0.088-6.861 0.003-7.918l-0.016-0.204 0.087-0.094c0.236-0.256 0.627-0.506 0.835-0.533l0.102-0.014v0.073c0 0.078 0.469 7.273 0.478 7.342 0.004 0.028 0.12-0.103 0.371-0.419 0.693-0.871 1.356-1.65 2.158-2.531 0.257-0.282 0.56-0.619 0.673-0.749 0.63-0.72 1.342-1.663 1.941-2.571 0.206-0.312 0.287-0.414 0.471-0.592 0.122-0.118 0.283-0.255 0.357-0.304 0.276-0.183 0.619-0.263 0.852-0.198 0.19 0.053 0.398 0.365 0.517 0.776 0.098 0.339 0.104 0.462 0.068 1.282-0.151 3.449-0.217 6.286-0.249 10.729-0.032 4.389-0.076 6.849-0.183 10.094-0.017 0.521-0.038 1.15-0.045 1.399l-0.014 0.452-0.071 0.118c-0.069 0.115-0.126 0.269-0.193 0.523-0.036 0.137-0.136 0.265-0.271 0.351-0.102 0.064-0.164 0.076-0.244 0.047zM40.657 29.093c-0.045-0.182-0.171-0.914-0.217-1.264-0.113-0.864-0.161-1.616-0.178-2.797-0.023-1.66 0.053-3.449 0.24-5.616 0.139-1.614 0.191-2.52 0.228-3.988 0.041-1.656-0.029-3.011-0.204-3.914l-0.049-0.253 0.282-0.436c1.742-2.691 3.626-5.114 6.116-7.867l0.105-0.116 0.133 0.067c0.152 0.077 0.277 0.192 0.32 0.296 0.066 0.158 0.024 0.454-0.107 0.753-0.041 0.094-0.092 0.228-0.114 0.299-0.045 0.147-0.045-0.016-0.007 3.916 0.011 1.207 0.026 4.058 0.033 6.336 0.016 5.506 0.045 8.013 0.13 11.156 0.017 0.651 0.038 1.454 0.045 1.786l0.013 0.602-0.066 0.062c-0.049 0.046-0.094 0.065-0.17 0.072-0.098 0.009-0.132-0.004-0.544-0.21-0.242-0.121-0.444-0.223-0.448-0.227-0.017-0.016-0.116-0.427-0.187-0.777-0.441-2.183-0.454-5.253-0.052-12.12 0.271-4.631 0.288-5.554 0.137-7.676l-0.014-0.2-0.131-0.073c-0.18-0.1-0.335-0.141-0.528-0.141-0.416 0.001-0.716 0.196-0.931 0.607-0.056 0.107-0.542 0.788-1.225 1.716l-1.132 1.538-0.025 1.022c-0.031 1.24-0.137 5.384-0.196 7.638-0.068 2.598-0.108 4.386-0.173 7.703-0.021 1.070-0.021 1.087 0.022 1.14 0.243 0.305 0.244 0.605 0.003 0.823-0.151 0.137-0.187 0.146-0.602 0.168-0.524 0.026-0.492 0.028-0.505-0.028zM49.981 29.123c-0.227-0.074-0.392-0.281-0.562-0.705l-0.068-0.169 0.015-0.355c0.008-0.195 0.038-0.733 0.067-1.194 0.104-1.675 0.141-2.295 0.257-4.346 0.243-4.287 0.341-6.303 0.463-9.51 0.156-4.097 0.138-6.877-0.055-8.477-0.036-0.299-0.126-0.795-0.161-0.887-0.040-0.106 0.065-0.311 0.203-0.395 0.037-0.022 0.14-0.057 0.229-0.076s0.236-0.062 0.327-0.095c0.19-0.069 0.165-0.080 0.318 0.149 0.34 0.508 0.625 1.468 0.763 2.574 0.052 0.417 0.074 0.813 0.089 1.614 0.012 0.621 0.008 0.806-0.020 1.054-0.103 0.9-0.139 1.646-0.164 3.437-0.020 1.458-0.034 1.852-0.097 2.802-0.042 0.642-0.040 0.628-0.118 0.645-0.096 0.021-0.186 0.139-0.216 0.281-0.026 0.124-0.018 0.269 0.026 0.477l0.024 0.113 0.209 0.128c0.498 0.306 0.892 0.616 1.342 1.055 0.87 0.85 1.704 1.902 2.839 3.581 0.442 0.655 0.894 1.287 1.211 1.693l0.161 0.207-0.035 0.159c-0.054 0.247-0.197 0.521-0.365 0.703-0.275 0.297-0.666 0.607-1.28 1.016-0.386 0.257-0.617 0.443-0.763 0.613-0.084 0.098-0.141 0.139-0.303 0.216-0.569 0.271-0.838 0.526-1.895 1.796-0.545 0.655-0.978 1.128-1.23 1.345-0.421 0.362-0.993 0.622-1.21 0.551zM51.472 26.395c1.497-1.051 2.673-2.108 3.595-3.229 0.099-0.12 0.14-0.186 0.128-0.206-0.010-0.016-0.173-0.236-0.363-0.49s-0.427-0.577-0.526-0.719c-0.875-1.252-1.592-2.043-2.292-2.526-0.224-0.155-0.684-0.413-0.702-0.394-0.023 0.023-0.16 0.505-0.221 0.778-0.217 0.968-0.275 2.141-0.175 3.541 0.068 0.946 0.143 2.358 0.156 2.922 0.011 0.477 0.019 0.575 0.043 0.565 0.016-0.006 0.177-0.115 0.357-0.241zM89.904 29.116c-0.169-0.061-0.252-0.185-0.344-0.511-0.101-0.36-0.165-0.47-0.347-0.595l-0.116-0.080v-0.152c0-0.339 0.047-1.479 0.118-2.853 0.124-2.407 0.19-3.852 0.3-6.552 0.118-2.9 0.14-3.815 0.14-5.82 0-1.821-0.032-2.93-0.14-4.798-0.017-0.302-0.032-0.582-0.032-0.622 0-0.059-0.019-0.092-0.095-0.164-0.181-0.173-0.363-0.174-0.617-0.003-0.276 0.186-0.353 0.228-0.459 0.253-0.125 0.028-0.114 0.018-0.611 0.591-0.399 0.46-0.662 0.787-1.078 1.342-0.6 0.798-1.116 1.328-1.765 1.811-0.179 0.133-0.207 0.18-0.301 0.503-0.115 0.393-0.213 0.655-0.366 0.97-0.168 0.346-0.297 0.533-0.45 0.65l-0.15 0.114c-0.038 0.029-0.045 0.076-0.066 0.484-0.013 0.248-0.052 0.796-0.087 1.216-0.136 1.648-0.309 4.297-0.41 6.304-0.037 0.732-0.051 3.27-0.022 4.013 0.047 1.222 0.118 2.11 0.23 2.872 0.030 0.207 0.060 0.41 0.066 0.452 0.010 0.070 0.001 0.085-0.131 0.21-0.078 0.074-0.142 0.153-0.142 0.174 0 0.062-0.019 0.066-0.136 0.026-0.293-0.101-0.575-0.292-0.758-0.513-0.237-0.287-0.393-0.721-0.497-1.381-0.032-0.203-0.039-0.365-0.037-0.904 0.003-0.707 0.001-0.68 0.224-4.54 0.274-4.753 0.371-6.813 0.452-9.553 0.086-2.936 0.088-6.861 0.003-7.918l-0.016-0.204 0.087-0.094c0.236-0.256 0.627-0.506 0.835-0.533l0.102-0.014v0.073c0 0.078 0.469 7.273 0.478 7.342 0.004 0.028 0.12-0.103 0.371-0.419 0.693-0.871 1.356-1.65 2.158-2.531 0.257-0.282 0.56-0.619 0.673-0.749 0.63-0.72 1.342-1.663 1.941-2.571 0.206-0.312 0.287-0.414 0.471-0.592 0.122-0.118 0.282-0.255 0.357-0.304 0.276-0.183 0.619-0.263 0.852-0.198 0.19 0.053 0.398 0.365 0.516 0.776 0.098 0.339 0.104 0.462 0.068 1.282-0.151 3.449-0.217 6.286-0.249 10.729-0.032 4.389-0.076 6.849-0.183 10.094-0.017 0.521-0.038 1.15-0.045 1.399l-0.014 0.452-0.071 0.118c-0.069 0.115-0.126 0.269-0.193 0.523-0.036 0.137-0.136 0.265-0.271 0.351-0.102 0.064-0.164 0.076-0.244 0.047zM68.162 28.974c0-0.133-0.042-0.327-0.101-0.467-0.074-0.174-0.19-0.327-0.457-0.603-0.315-0.325-0.79-0.909-1.026-1.262-0.11-0.165-0.301-0.523-0.588-1.106-0.234-0.475-0.481-0.964-0.548-1.087-0.157-0.286-0.482-0.776-0.662-0.998-0.27-0.334-0.676-0.672-1.013-0.843l-0.107-0.054-0.115 0.126c-0.17 0.187-0.369 0.439-0.51 0.649-0.148 0.219-0.569 1.065-0.864 1.736-0.115 0.26-0.299 0.652-0.41 0.871-0.388 0.765-0.616 1.099-1.055 1.544l-0.261 0.264-0.015 0.188c-0.008 0.103-0.033 0.271-0.055 0.373-0.094 0.435-0.222 0.556-0.589 0.557-0.218 0.001-0.397-0.040-0.574-0.129-0.234-0.118-0.292-0.245-0.271-0.592 0.037-0.615 0.292-1.127 1.108-2.221 0.355-0.476 0.464-0.657 0.586-0.973 0.159-0.41 0.314-0.656 1.028-1.635 0.521-0.713 0.749-1.063 0.918-1.409 0.465-0.952 0.29-1.803-0.518-2.514-0.192-0.169-0.195-0.173-0.346-0.485-0.084-0.173-0.245-0.469-0.358-0.659-0.578-0.969-0.853-1.532-1.046-2.141-0.106-0.335-0.177-0.759-0.177-1.062v-0.148l0.223-0.232c0.426-0.445 0.93-1.086 1.249-1.59 0.138-0.218 1.515-2.52 1.58-2.642 0.020-0.037 0.014-0.076-0.032-0.203-0.068-0.189-0.183-0.423-0.274-0.555-0.036-0.053-0.193-0.228-0.347-0.387s-0.369-0.396-0.477-0.525c-0.175-0.21-0.201-0.252-0.243-0.398-0.162-0.559-0.444-1.109-1.070-2.085-0.615-0.96-0.914-1.552-1.090-2.16-0.099-0.343-0.117-0.289 0.202-0.613 0.154-0.157 0.319-0.304 0.366-0.329 0.129-0.066 0.255-0.076 0.39-0.032 0.098 0.032 0.151 0.074 0.353 0.277 0.704 0.709 1.239 1.461 1.764 2.479 0.414 0.802 0.699 1.318 1.053 1.902 0.33 0.545 0.51 0.818 0.542 0.818 0.039 0 0.267-0.112 0.359-0.176 0.42-0.293 0.716-0.707 1.81-2.532 0.438-0.731 0.843-1.313 1.235-1.775 0.383-0.452 0.805-0.692 1.261-0.717 0.174-0.009 0.205-0.005 0.292 0.040 0.078 0.040 0.109 0.075 0.161 0.179 0.063 0.125 0.065 0.139 0.065 0.43 0 0.362-0.017 0.42-0.216 0.751-0.263 0.438-0.478 0.696-1.15 1.379-0.918 0.933-1.26 1.31-1.636 1.807-0.601 0.792-0.824 1.302-0.904 2.070l-0.025 0.241 0.264 0.437c1.017 1.678 1.758 2.711 2.544 3.545 0.196 0.208 0.271 0.305 0.328 0.424 0.202 0.419 0.179 0.727-0.083 1.121-0.104 0.156-0.385 0.452-0.908 0.953-0.428 0.41-1.082 1.089-1.242 1.289-0.42 0.526-0.916 1.32-1.268 2.029l-0.115 0.232 0.155 0.306c0.298 0.589 0.618 1.126 1.387 2.328 1.683 2.629 2.36 3.973 2.739 5.443 0.074 0.286 0.076 0.302 0.039 0.33-0.073 0.055-0.364 0.194-0.502 0.24-0.156 0.052-0.495 0.108-0.65 0.108l-0.102 0v-0.125zM64.090 18.898c0.29-0.321 0.881-1.082 1.301-1.676 0.443-0.625 0.85-1.278 1.149-1.843l0.127-0.24-0.070-0.083c-0.169-0.199-0.34-0.434-0.609-0.836-0.504-0.753-0.954-1.314-1.252-1.563-0.245-0.204-0.541-0.305-0.75-0.255-0.148 0.035-0.358 0.192-0.624 0.465-0.436 0.448-0.853 1.032-1.119 1.568-0.185 0.373-0.243 0.581-0.226 0.807 0.044 0.57 0.286 1.032 1.261 2.412 0.49 0.693 0.606 0.899 0.688 1.22 0.016 0.062 0.032 0.113 0.036 0.113s0.043-0.040 0.087-0.088zM71.917 28.993c-0.047-0.022-0.107-0.063-0.133-0.091-0.122-0.133-0.207-0.465-0.246-0.96-0.040-0.518 0.006-0.948 0.23-2.158l0.122-0.656 0.018-0.678c0.010-0.373 0.033-1.113 0.051-1.646 0.067-1.997 0.082-3.043 0.082-5.745-0-3.064-0.024-4.323-0.115-6.003-0.090-1.666-0.244-3.317-0.423-4.529-0.043-0.29-0.079-0.58-0.079-0.645-0.002-0.185 0.072-1.17 0.107-1.42 0.083-0.598 0.268-0.937 0.556-1.022 0.197-0.059 0.488-0.030 0.726 0.072l0.099 0.042 0.035 0.19c0.062 0.339 0.205 1.296 0.272 1.815 0.401 3.126 0.473 6.201 0.215 9.183-0.012 0.134-0.030 0.444-0.041 0.69s-0.042 0.615-0.068 0.822c-0.066 0.517-0.072 1.563-0.011 1.924 0.046 0.275 0.118 0.536 0.21 0.769l0.066 0.166 0.138-0.052c0.231-0.087 0.492-0.223 0.731-0.381 0.249-0.165 0.561-0.46 0.92-0.871 0.418-0.48 1.099-1.054 1.459-1.23 0.099-0.049 0.344-0.21 0.545-0.36 0.436-0.324 0.809-0.573 0.944-0.631 0.389-0.167 0.821-0.067 0.914 0.212 0.1 0.3-0.134 0.854-0.525 1.242-0.176 0.174-0.339 0.263-0.588 0.318-0.195 0.044-0.383 0.119-0.528 0.211-0.125 0.080-0.477 0.378-0.809 0.686-0.54 0.501-0.851 0.719-1.178 0.825-0.087 0.028-0.121 0.052-0.148 0.105-0.071 0.14-0.272 0.384-0.411 0.499-0.147 0.121-0.347 0.23-0.668 0.363-0.256 0.106-0.522 0.279-0.714 0.465l-0.167 0.161-0.067 0.28c-0.254 1.067-0.34 1.808-0.32 2.773 0.014 0.7 0.072 1.227 0.22 2.014 0.056 0.299 0.156 0.769 0.172 0.814 0.007 0.019 0.082-0.037 0.22-0.163 0.376-0.345 0.674-0.593 1.6-1.331 1.044-0.832 1.305-1.049 1.74-1.443 0.72-0.652 1.108-1.093 1.473-1.675 0.066-0.106 0.147-0.209 0.178-0.23 0.082-0.054 0.319-0.091 0.504-0.079 0.269 0.018 0.413 0.128 0.471 0.363 0.028 0.115-0.001 0.256-0.118 0.559-0.158 0.41-0.351 0.699-0.719 1.080-0.376 0.389-0.594 0.571-1.484 1.24-0.968 0.728-1.219 0.963-1.544 1.448-0.079 0.118-0.131 0.167-0.284 0.266-0.317 0.206-0.444 0.318-1.155 1.020-0.703 0.693-1.007 0.952-1.369 1.164-0.369 0.216-0.886 0.317-1.105 0.216zM31.644 28.791c-0.198-0.069-0.416-0.224-0.608-0.43l-0.161-0.173v-7.061c0-6.911-0.001-7.064-0.042-7.224-0.107-0.42-0.297-0.617-0.951-0.987-0.573-0.325-0.708-0.437-0.825-0.686-0.030-0.065-0.055-0.129-0.055-0.143-0.001-0.075-1.202-0.999-1.855-1.426-0.245-0.16-0.628-0.411-0.85-0.556-0.424-0.278-0.859-0.589-1.295-0.926l-0.26-0.201 0.001-0.251 0.001-0.251 0.252-0.231c0.383-0.351 1.043-1.007 2.018-2.005 0.955-0.978 1.355-1.362 1.838-1.764 0.962-0.801 1.73-1.259 2.625-1.564l0.183-0.062 0.28 0.188c0.684 0.46 1.043 0.753 2.692 2.193 1.645 1.437 2.432 2.022 3.336 2.48 0.256 0.13 0.262 0.135 0.308 0.241 0.075 0.174 0.114 0.415 0.1 0.614-0.027 0.384-0.163 0.631-0.555 1.010-0.276 0.267-0.451 0.41-1.136 0.929-0.448 0.34-0.701 0.568-0.873 0.788-0.056 0.072-0.082 0.086-0.185 0.102-1.127 0.177-2.333 1.315-3.386 3.195l-0.134 0.239 0.039 0.46c0.158 1.874 0.192 3.526 0.193 9.344 0 3.895-0 3.936-0.043 4.004-0.118 0.192-0.374 0.252-0.651 0.155zM32.732 11.802c0.326-0.158 0.701-0.381 1.013-0.603 0.231-0.164 0.319-0.233 0.897-0.703 0.504-0.409 1.155-0.866 1.611-1.129 0.175-0.101 0.199-0.123 0.249-0.225 0.136-0.278 0.078-0.504-0.18-0.699-0.126-0.096-0.327-0.201-1.074-0.563-0.097-0.047-0.222-0.125-0.277-0.174s-0.213-0.143-0.351-0.21c-0.319-0.155-0.639-0.371-0.939-0.634-0.273-0.239-0.4-0.328-0.618-0.431-0.164-0.078-0.453-0.161-0.56-0.161-0.057 0-0.062 0.005-0.051 0.059 0.102 0.489 0.118 1.635 0.038 2.716-0.1 1.366-0.117 2.883-0.032 2.883 0.005 0 0.128-0.057 0.272-0.127zM30.768 11.413c0-0.022 0.053-0.309 0.117-0.639 0.159-0.816 0.171-0.941 0.156-1.61-0.016-0.719-0.088-1.519-0.221-2.453-0.059-0.416-0.201-1.155-0.256-1.339l-0.034-0.113h-0.646l-0.254 0.223c-0.338 0.297-0.549 0.462-1.251 0.981-0.325 0.241-0.674 0.506-0.775 0.589-0.416 0.345-0.722 0.679-0.958 1.045-0.086 0.133-0.098 0.163-0.072 0.183 0.017 0.013 0.273 0.217 0.568 0.454 0.62 0.496 0.804 0.637 2.409 1.846 0.651 0.49 1.191 0.887 1.2 0.882s0.016-0.027 0.016-0.049zM94.271 28.236l-0.947-0.446 0.006-0.362c0.007-0.405 0.028-1.108 0.090-3.020 0.166-5.113 0.205-8.959 0.129-12.77-0.065-3.252-0.168-5.048-0.398-6.99l-0.053-0.449 0.347-0.659c0.191-0.362 0.354-0.666 0.363-0.676 0.021-0.023 0.388 0.115 0.629 0.236 0.432 0.217 0.708 0.421 1.064 0.789 0.695 0.718 1.28 1.637 2.154 3.385 0.084 0.167 0.226 0.434 0.317 0.592 0.217 0.379 0.594 0.949 0.613 0.928s0.115-0.352 0.169-0.587c0.077-0.336 0.112-0.673 0.131-1.28 0.021-0.647 0.056-1.047 0.14-1.591 0.029-0.189 0.053-0.377 0.053-0.418 0-0.23 0.195-0.69 0.393-0.929 0.346-0.417 0.77-0.417 0.983 0l0.044 0.087-0.076 2.004c-0.042 1.102-0.076 2.008-0.076 2.014 0 0.027 0.484-0.376 0.871-0.727 0.412-0.373 0.968-0.945 1.496-1.536 0.765-0.858 1.446-1.563 2.165-2.238 0.291-0.274 0.339-0.31 0.461-0.352 0.247-0.083 0.433-0.053 0.601 0.098 0.057 0.051 0.132 0.139 0.167 0.195 0.073 0.116 0.057-0.048 0.177 1.867 0.385 6.183 0.5 12.665 0.334 18.837-0.068 2.52-0.1 3.585-0.11 3.652-0.010 0.069-0.012 0.070-0.126 0.070-0.143 0-0.357-0.065-0.487-0.147-0.104-0.066-0.152-0.12-0.361-0.401-0.124-0.167-0.38-0.43-0.507-0.52l-0.063-0.045 0.026-1.504c0.014-0.827 0.040-2.123 0.057-2.881 0.053-2.368 0.080-5.023 0.066-6.455-0.039-3.917-0.15-6.291-0.422-9.026-0.061-0.61-0.065-0.638-0.123-0.721-0.088-0.127-0.222-0.189-0.373-0.175-0.066 0.006-0.176 0.033-0.245 0.059-0.111 0.043-0.179 0.102-0.636 0.555-0.281 0.279-0.605 0.613-0.72 0.742-0.936 1.052-1.402 1.892-1.447 2.609l-0.012 0.197-0.855 0.333v0.124c0 0.068 0.014 0.427 0.032 0.798 0.125 2.663 0.2 5.311 0.248 8.775 0.012 0.834 0.031 2.083 0.043 2.776 0.019 1.106 0.035 1.834 0.099 4.726l0.014 0.648-0.121 0.035c-0.222 0.065-0.458 0.085-0.656 0.058-0.411-0.058-0.766-0.256-0.962-0.539l-0.061-0.088 0.014-1.392c0.013-1.317 0.026-1.918 0.079-3.587 0.026-0.812 0.093-2.578 0.14-3.668 0.063-1.479 0.076-2.246 0.054-3.243-0.049-2.177-0.162-3.569-0.42-5.148-0.042-0.254-0.084-0.482-0.094-0.506s-0.114-0.103-0.231-0.176c-0.661-0.412-1.12-0.816-1.938-1.709-0.356-0.389-0.839-0.844-1.309-1.236l-0.301-0.251-0.015 0.513c-0.043 1.513-0.063 2.381-0.082 3.547-0.012 0.71-0.031 1.862-0.043 2.56s-0.032 1.802-0.043 2.453c-0.045 2.581-0.012 5.51 0.087 7.896 0.072 1.722 0.185 3.092 0.356 4.309 0.031 0.216 0.052 0.401 0.048 0.41s-0.433-0.184-0.954-0.429zM37.607 21.441c-0.217-0.081-0.366-0.179-0.594-0.392-0.219-0.204-0.447-0.39-0.592-0.481-0.056-0.035-0.102-0.075-0.102-0.088s0.036-0.096 0.079-0.183c0.057-0.115 0.127-0.207 0.253-0.333 0.426-0.426 0.895-0.437 1.053-0.024 0.037 0.097 0.037 0.106 0.002 0.18-0.047 0.098-0.036 0.328 0.021 0.445 0.022 0.045 0.101 0.149 0.175 0.23 0.149 0.163 0.18 0.211 0.205 0.322 0.021 0.094-0.030 0.219-0.129 0.319-0.087 0.087-0.15 0.088-0.37 0.007zM76.367 11.473c-0.085-0.046-0.269-0.125-0.409-0.176-0.629-0.229-0.915-0.455-1.058-0.838-0.096-0.257-0.112-0.221 0.257-0.603 0.348-0.36 0.443-0.438 0.621-0.509 0.157-0.062 0.41-0.096 0.443-0.060 0.055 0.059 0.891 1.656 0.891 1.703 0 0.098-0.069 0.25-0.143 0.315-0.041 0.036-0.159 0.108-0.262 0.159l-0.187 0.093zM54.661 10.697c-0.83-0.611-0.992-0.753-1.145-1.009-0.076-0.127-0.135-0.326-0.135-0.453 0-0.080 0.003-0.083 0.169-0.166 0.149-0.075 0.317-0.181 0.678-0.43 0.135-0.093 0.357-0.169 0.544-0.187l0.15-0.014 0.077 0.169c0.294 0.645 0.335 1.336 0.112 1.877-0.085 0.205-0.18 0.391-0.2 0.388-0.007-0.001-0.119-0.080-0.249-0.176zM5.25 1.698c-0.964-0.052-1.787-0.090-1.829-0.085s-0.337 0.020-0.656 0.032-0.629 0.030-0.688 0.041c-0.059 0.011-0.551 0.020-1.092 0.021l-0.984 0.001v-1.489l1.253 0.011c0.689 0.006 1.408 0.021 1.598 0.033 1.17 0.076 3.112 0.081 5.002 0.013 1.078-0.039 4.4-0.082 5.207-0.068 0.507 0.009 0.68 0.021 1 0.067 0.849 0.123 0.67 0.127 4.442-0.094 2.863-0.167 3.395-0.194 3.561-0.175 0.107 0.012 0.398 0.032 0.647 0.044s0.645 0.032 0.882 0.044 0.609 0.042 0.828 0.067c0.384 0.044 0.463 0.045 2.291 0.032 1.953-0.013 2.555-0.028 4.174-0.1 1.875-0.084 2.389-0.095 4.378-0.095 2.321-0 3.389 0.037 4.454 0.154 0.227 0.025 0.597 0.037 1.36 0.043l1.048 0.009 0.007 0.047c0.007 0.047 0.012 0.047 0.631 0.067 0.689 0.022 2.782-0.010 4.12-0.063 0.522-0.020 1.443-0.031 2.749-0.032 1.913-0.001 1.963 0 1.963 0.040 0 0.037 0.026 0.042 0.317 0.057 0.417 0.021 2.356-0.005 3.416-0.047 0.528-0.021 1.678-0.037 3.1-0.044 2.247-0.012 2.261-0.011 2.273 0.031 0.011 0.042 0.036 0.043 0.781 0.059 0.884 0.018 2.178 0.001 3.42-0.047 1.123-0.043 6.374-0.066 7.014-0.031 1.182 0.065 1.595 0.076 2.991 0.075 0.817-0.001 1.78-0.013 2.141-0.026 2.057-0.079 3.652-0.102 5.008-0.075l0.694 0.014v0.047c0 0.041 0.015 0.049 0.113 0.060 0.412 0.047 0.626 0.038 3.974-0.157 2.861-0.167 3.395-0.193 3.561-0.175 0.107 0.012 0.398 0.032 0.647 0.044 1.153 0.057 1.357 0.070 1.7 0.109 0.356 0.041 0.603 0.042 9.042 0.042h8.676v1.51l-1.124-0.013c-2.686-0.032-3.003-0.042-3.426-0.105-1.431-0.215-2.883-0.309-4.443-0.287-1.326 0.019-2.174 0.063-3.561 0.186-1.033 0.092-1.353 0.114-2.485 0.177-0.243 0.013-1.286 0.028-2.318 0.032l-1.877 0.007v-0.144l-0.307-0.014c-0.932-0.043-2.611 0.004-3.803 0.105-1.292 0.11-2.373 0.147-3.884 0.133-0.872-0.008-1.201-0.018-1.399-0.045-0.202-0.027-0.462-0.034-1.187-0.035l-0.929-0-0.007-0.048c-0.007-0.046-0.015-0.048-0.168-0.042-0.089 0.004-0.273 0.021-0.409 0.039s-0.499 0.041-0.807 0.052-0.641 0.029-0.742 0.040c-0.482 0.056-0.812 0.050-2.728-0.050-1.033-0.054-1.89-0.093-1.904-0.088s-0.298 0.020-0.629 0.032c-0.331 0.012-0.651 0.031-0.71 0.042s-0.819 0.020-1.689 0.021c-1.52 0.001-1.593-0.001-1.883-0.046-0.387-0.060-0.992-0.064-1.377-0.008-0.142 0.020-0.51 0.046-0.818 0.056s-0.64 0.029-0.738 0.040c-0.475 0.055-0.803 0.050-2.527-0.039-2.005-0.104-1.888-0.101-1.888-0.045 0 0.043-0.014 0.043-1.816 0.043-1.317 0-1.819-0.007-1.824-0.024s-0.066-0.018-0.229 0c-0.121 0.013-0.368 0.024-0.548 0.024s-0.459 0.014-0.62 0.031c-0.615 0.065-0.893 0.063-2.446-0.019-1.707-0.089-1.618-0.087-1.618-0.045 0 0.028-0.291 0.032-2.372 0.032-1.903 0-2.43 0.006-2.663 0.031-0.63 0.067-0.862 0.064-2.652-0.029-0.932-0.048-1.714-0.088-1.737-0.088-0.029 0-0.043 0.014-0.043 0.043 0 0.043-0.014 0.043-9.628 0.043h-9.628v-0.144l-0.294-0.014c-0.9-0.043-2.605 0.004-3.794 0.105-1.292 0.11-2.373 0.147-3.884 0.133-0.872-0.008-1.201-0.018-1.399-0.045-0.203-0.027-0.467-0.034-1.237-0.035-0.897-0-1.004-0.004-1.28-0.047-0.387-0.060-0.992-0.064-1.377-0.008-0.142 0.020-0.51 0.046-0.818 0.056s-0.637 0.029-0.732 0.040c-0.455 0.056-1.007 0.045-2.808-0.052z"></path>
</symbol>
<symbol id="svgico-mir" viewBox="0 0 113 32">
<title>mir</title>
<path fill="#4db45e" style="fill: var(--color1, #4db45e)" d="M30.463 0v0.014c-0.014 0-4.416-0.014-5.59 4.192-1.076 3.857-4.108 14.505-4.192 14.798h-0.838c0 0-3.102-10.886-4.192-14.812-1.174-4.206-5.59-4.192-5.59-4.192h-10.061v32h10.061v-19.004h0.838l5.869 19.004h6.987l5.869-18.99h0.838v18.99h10.061v-32z"></path>
<path fill="#4db45e" style="fill: var(--color1, #4db45e)" d="M67.214 0c0 0-2.948 0.266-4.332 3.354l-7.127 15.651h-0.838v-19.004h-10.061v32h9.502c0 0 3.088-0.279 4.472-3.354l6.987-15.651h0.838v19.004h10.061v-32z"></path>
<path fill="#4db45e" style="fill: var(--color1, #4db45e)" d="M81.188 14.533v17.467h10.061v-10.201h10.9c4.751 0 8.776-3.032 10.271-7.266z"></path>
<path fill="#00b4e6" style="fill: var(--color2, #00b4e6)" d="M102.148 0h-22.372c1.118 6.093 5.687 10.983 11.598 12.576v0c1.341 0.363 2.753 0.559 4.206 0.559h17.244c0.154-0.727 0.224-1.467 0.224-2.236 0-6.023-4.877-10.9-10.9-10.9z"></path>
</symbol>
<symbol id="svgico-maestro" viewBox="0 0 41 32">
<title>maestro</title>
<path fill="#0099df" style="fill: var(--color3, #0099df)" d="M40.77 20.598v-0.493h-0.129l-0.149 0.339-0.148-0.339h-0.129v0.493h0.091v-0.372l0.139 0.321h0.095l0.139-0.322v0.373zM39.954 20.598v-0.409h0.165v-0.083h-0.42v0.083h0.165v0.409z"></path>
<path fill="#6c6bbd" style="fill: var(--color4, #6c6bbd)" d="M26.154 22.72h-11.124v-19.992h11.124z"></path>
<path fill="#eb001b" style="fill: var(--color5, #eb001b)" d="M15.743 12.722c0-4.056 1.899-7.668 4.856-9.996-2.162-1.702-4.891-2.719-7.857-2.719-7.021 0-12.713 5.692-12.713 12.715s5.692 12.715 12.713 12.715c2.966 0 5.695-1.016 7.857-2.718-2.957-2.328-4.856-5.941-4.856-9.996z"></path>
<path fill="#0099df" style="fill: var(--color3, #0099df)" d="M41.158 12.722c0 7.022-5.692 12.715-12.713 12.715-2.966 0-5.695-1.016-7.858-2.718 2.958-2.328 4.857-5.941 4.857-9.996s-1.899-7.668-4.857-9.996c2.163-1.702 4.892-2.719 7.858-2.719 7.021 0 12.713 5.692 12.713 12.715z"></path>
<path fill="#fff" style="fill: var(--color6, #fff)" d="M29.905 28.365c0.148 0 0.361 0.028 0.523 0.092l-0.226 0.692c-0.155-0.064-0.31-0.085-0.459-0.085-0.48 0-0.72 0.31-0.72 0.868v1.893h-0.735v-3.376h0.728v0.41c0.191-0.297 0.466-0.495 0.89-0.495zM27.191 29.121h-1.2v1.525c0 0.339 0.12 0.565 0.487 0.565 0.191 0 0.431-0.064 0.649-0.191l0.212 0.628c-0.233 0.162-0.6 0.262-0.918 0.262-0.869 0-1.172-0.466-1.172-1.251v-1.539h-0.686v-0.671h0.686v-1.024h0.741v1.024h1.2zM17.79 29.841c0.078-0.487 0.374-0.82 0.897-0.82 0.473 0 0.777 0.297 0.854 0.82zM20.305 30.138c-0.007-1.052-0.657-1.773-1.604-1.773-0.989 0-1.681 0.72-1.681 1.773 0 1.073 0.72 1.772 1.731 1.772 0.508 0 0.974-0.127 1.384-0.473l-0.361-0.544c-0.282 0.226-0.643 0.353-0.981 0.353-0.473 0-0.904-0.219-1.010-0.826h2.507c0.007-0.092 0.015-0.183 0.015-0.282zM23.532 29.312c-0.204-0.128-0.621-0.29-1.052-0.29-0.403 0-0.643 0.149-0.643 0.396 0 0.226 0.254 0.289 0.572 0.331l0.346 0.049c0.735 0.107 1.179 0.417 1.179 1.010 0 0.643-0.565 1.102-1.539 1.102-0.551 0-1.060-0.141-1.462-0.438l0.346-0.572c0.247 0.191 0.615 0.353 1.124 0.353 0.501 0 0.77-0.148 0.77-0.41 0-0.19-0.191-0.297-0.593-0.352l-0.346-0.049c-0.756-0.107-1.166-0.445-1.166-0.996 0-0.671 0.551-1.081 1.406-1.081 0.537 0 1.024 0.12 1.377 0.353zM32.59 29.063c-0.151 0-0.291 0.027-0.421 0.079s-0.242 0.128-0.336 0.223-0.169 0.21-0.223 0.344c-0.054 0.133-0.081 0.28-0.081 0.441s0.027 0.307 0.081 0.441 0.129 0.248 0.223 0.344c0.095 0.095 0.207 0.17 0.336 0.223s0.27 0.079 0.421 0.079 0.292-0.026 0.421-0.079c0.13-0.053 0.243-0.128 0.338-0.223 0.096-0.095 0.171-0.21 0.226-0.344s0.081-0.28 0.081-0.441c0-0.16-0.027-0.307-0.081-0.441s-0.129-0.248-0.226-0.344c-0.095-0.095-0.208-0.17-0.338-0.223s-0.27-0.079-0.421-0.079zM32.59 28.365c0.262 0 0.504 0.045 0.728 0.137s0.416 0.216 0.579 0.375c0.163 0.159 0.29 0.348 0.382 0.564s0.138 0.453 0.138 0.708-0.046 0.491-0.138 0.708c-0.092 0.217-0.219 0.406-0.382 0.565s-0.356 0.284-0.579 0.375c-0.223 0.091-0.466 0.136-0.728 0.136s-0.504-0.045-0.728-0.136c-0.223-0.091-0.415-0.216-0.576-0.375s-0.289-0.348-0.381-0.565c-0.092-0.217-0.138-0.453-0.138-0.708s0.046-0.491 0.138-0.708c0.092-0.217 0.219-0.405 0.381-0.564s0.353-0.285 0.576-0.375c0.223-0.091 0.466-0.137 0.728-0.137zM13.5 30.138c0-0.593 0.389-1.081 1.024-1.081 0.607 0 1.017 0.466 1.017 1.081s-0.41 1.080-1.017 1.080c-0.635 0-1.024-0.487-1.024-1.080zM16.233 30.138v-1.688h-0.734v0.41c-0.234-0.304-0.586-0.495-1.066-0.495-0.947 0-1.688 0.741-1.688 1.773s0.741 1.773 1.688 1.773c0.48 0 0.833-0.191 1.066-0.495v0.41h0.734zM12.095 31.826v-2.119c0-0.798-0.508-1.335-1.327-1.342-0.431-0.007-0.876 0.127-1.187 0.601-0.233-0.374-0.601-0.601-1.116-0.601-0.36 0-0.713 0.106-0.989 0.501v-0.416h-0.734v3.376h0.741v-1.871c0-0.586 0.325-0.897 0.826-0.897 0.487 0 0.735 0.318 0.735 0.89v1.879h0.741v-1.871c0-0.586 0.339-0.897 0.826-0.897 0.502 0 0.742 0.318 0.742 0.89v1.879z"></path>
<path fill="#fff" style="fill: var(--color6, #fff)" d="M35.208 31.573v0.083h0.077c0.017 0 0.032-0.004 0.041-0.011s0.016-0.018 0.016-0.032-0.006-0.024-0.016-0.031c-0.010-0.007-0.024-0.011-0.041-0.011zM35.286 31.515c0.040 0 0.070 0.009 0.092 0.027s0.032 0.042 0.032 0.073c0 0.026-0.008 0.047-0.026 0.064s-0.042 0.027-0.074 0.031l0.102 0.117h-0.079l-0.095-0.116h-0.031v0.116h-0.066v-0.311zM35.266 31.932c0.036 0 0.070-0.006 0.101-0.020s0.059-0.032 0.082-0.056 0.042-0.051 0.056-0.083c0.013-0.032 0.020-0.065 0.020-0.102s-0.007-0.070-0.020-0.102c-0.014-0.032-0.032-0.060-0.056-0.083s-0.051-0.042-0.082-0.055c-0.031-0.014-0.065-0.020-0.101-0.020s-0.071 0.006-0.103 0.020c-0.032 0.013-0.061 0.032-0.084 0.055s-0.042 0.052-0.055 0.083c-0.014 0.032-0.020 0.065-0.020 0.102s0.006 0.070 0.020 0.102c0.013 0.032 0.032 0.060 0.055 0.083s0.052 0.042 0.084 0.056c0.032 0.014 0.066 0.020 0.103 0.020zM35.266 31.336c0.048 0 0.091 0.009 0.133 0.027s0.078 0.041 0.109 0.072c0.031 0.030 0.055 0.065 0.073 0.107s0.027 0.084 0.027 0.13-0.009 0.090-0.027 0.13c-0.018 0.040-0.042 0.076-0.073 0.106s-0.067 0.055-0.109 0.073c-0.041 0.018-0.085 0.027-0.133 0.027s-0.093-0.009-0.135-0.027-0.078-0.042-0.109-0.073c-0.031-0.030-0.055-0.065-0.073-0.106s-0.027-0.084-0.027-0.13c0-0.046 0.009-0.090 0.027-0.13s0.042-0.077 0.073-0.107c0.031-0.031 0.067-0.055 0.109-0.072s0.087-0.027 0.135-0.027z"></path>
</symbol>
<symbol id="svgico-mastercard" viewBox="0 0 41 32">
<title>mastercard</title>
<path fill="#fff" style="fill: var(--color6, #fff)" d="M40.299 31.551v0.083h0.077c0.017 0 0.032-0.004 0.042-0.011s0.015-0.018 0.015-0.032-0.006-0.024-0.015-0.031c-0.011-0.007-0.025-0.011-0.042-0.011zM40.377 31.493c0.040 0 0.070 0.009 0.092 0.027s0.032 0.042 0.032 0.073c0 0.026-0.008 0.047-0.026 0.064s-0.041 0.027-0.074 0.031l0.102 0.117h-0.079l-0.095-0.116h-0.031v0.116h-0.066v-0.311zM40.356 31.912c0.036 0 0.070-0.007 0.101-0.021s0.059-0.032 0.082-0.056 0.042-0.051 0.056-0.083c0.013-0.032 0.020-0.065 0.020-0.102s-0.007-0.070-0.020-0.102c-0.014-0.032-0.032-0.060-0.056-0.083s-0.051-0.042-0.082-0.056c-0.031-0.013-0.065-0.019-0.101-0.019s-0.071 0.006-0.103 0.019c-0.032 0.014-0.061 0.032-0.084 0.056s-0.042 0.052-0.055 0.083c-0.014 0.032-0.020 0.065-0.020 0.102s0.006 0.070 0.020 0.102c0.013 0.032 0.032 0.060 0.055 0.083s0.052 0.042 0.084 0.056c0.032 0.014 0.066 0.021 0.103 0.021zM40.356 31.314c0.048 0 0.091 0.009 0.133 0.027s0.077 0.041 0.108 0.072c0.031 0.030 0.055 0.065 0.073 0.107s0.027 0.084 0.027 0.13-0.009 0.090-0.027 0.13c-0.018 0.040-0.042 0.076-0.073 0.107s-0.067 0.054-0.108 0.072c-0.042 0.018-0.086 0.027-0.133 0.027s-0.093-0.009-0.135-0.027-0.078-0.042-0.109-0.072c-0.031-0.031-0.055-0.066-0.073-0.107s-0.027-0.084-0.027-0.13c0-0.046 0.009-0.090 0.027-0.13s0.042-0.077 0.073-0.107c0.031-0.031 0.067-0.055 0.109-0.072s0.086-0.027 0.135-0.027zM8.866 30.116c0-0.593 0.389-1.081 1.024-1.081 0.607 0 1.017 0.466 1.017 1.081s-0.41 1.081-1.017 1.081c-0.635 0-1.024-0.487-1.024-1.081zM11.599 30.116v-1.688h-0.734v0.41c-0.233-0.304-0.586-0.495-1.066-0.495-0.946 0-1.688 0.742-1.688 1.773s0.742 1.773 1.688 1.773c0.48 0 0.833-0.191 1.066-0.495v0.41h0.734zM36.399 30.116c0-0.593 0.389-1.081 1.024-1.081 0.608 0 1.017 0.466 1.017 1.081s-0.409 1.081-1.017 1.081c-0.635 0-1.024-0.487-1.024-1.081zM39.133 30.116v-3.043h-0.735v1.765c-0.233-0.304-0.586-0.495-1.066-0.495-0.946 0-1.688 0.742-1.688 1.773s0.742 1.773 1.688 1.773c0.48 0 0.833-0.191 1.066-0.495v0.41h0.735zM20.709 29c0.473 0 0.777 0.297 0.854 0.819h-1.751c0.078-0.487 0.374-0.819 0.897-0.819zM20.723 28.343c-0.989 0-1.681 0.72-1.681 1.773 0 1.073 0.72 1.773 1.73 1.773 0.508 0 0.974-0.127 1.384-0.473l-0.36-0.544c-0.283 0.226-0.643 0.353-0.982 0.353-0.473 0-0.904-0.219-1.009-0.827h2.506c0.007-0.091 0.015-0.183 0.015-0.282-0.007-1.052-0.657-1.773-1.603-1.773zM29.585 30.116c0-0.593 0.389-1.081 1.024-1.081 0.607 0 1.017 0.466 1.017 1.081s-0.41 1.081-1.017 1.081c-0.635 0-1.024-0.487-1.024-1.081zM32.318 30.116v-1.688h-0.734v0.41c-0.234-0.304-0.586-0.495-1.066-0.495-0.946 0-1.688 0.742-1.688 1.773s0.742 1.773 1.688 1.773c0.48 0 0.832-0.191 1.066-0.495v0.41h0.734zM25.44 30.116c0 1.024 0.713 1.773 1.801 1.773 0.508 0 0.847-0.113 1.214-0.402l-0.352-0.593c-0.276 0.198-0.565 0.304-0.883 0.304-0.586-0.007-1.017-0.431-1.017-1.081s0.431-1.073 1.017-1.081c0.318 0 0.608 0.106 0.883 0.304l0.352-0.593c-0.367-0.289-0.706-0.402-1.214-0.402-1.088 0-1.801 0.748-1.801 1.773zM34.902 28.343c-0.424 0-0.699 0.198-0.89 0.495v-0.41h-0.727v3.375h0.735v-1.892c0-0.558 0.24-0.869 0.72-0.869 0.149 0 0.304 0.021 0.459 0.085l0.226-0.692c-0.162-0.064-0.374-0.092-0.523-0.092zM15.229 28.696c-0.353-0.233-0.84-0.353-1.376-0.353-0.855 0-1.406 0.41-1.406 1.081 0 0.55 0.41 0.89 1.165 0.996l0.347 0.049c0.402 0.057 0.592 0.162 0.592 0.353 0 0.261-0.268 0.41-0.769 0.41-0.508 0-0.875-0.162-1.123-0.353l-0.346 0.571c0.402 0.297 0.911 0.438 1.461 0.438 0.975 0 1.54-0.459 1.54-1.102 0-0.593-0.445-0.904-1.179-1.009l-0.346-0.050c-0.318-0.042-0.572-0.105-0.572-0.331 0-0.247 0.24-0.395 0.643-0.395 0.431 0 0.848 0.162 1.052 0.289zM24.698 28.343c-0.424 0-0.699 0.198-0.889 0.495v-0.41h-0.727v3.375h0.734v-1.892c0-0.558 0.24-0.869 0.72-0.869 0.149 0 0.304 0.021 0.459 0.085l0.226-0.692c-0.162-0.064-0.374-0.092-0.523-0.092zM18.435 28.428h-1.2v-1.024h-0.742v1.024h-0.685v0.671h0.685v1.54c0 0.783 0.304 1.25 1.172 1.25 0.318 0 0.685-0.099 0.918-0.261l-0.212-0.629c-0.219 0.127-0.459 0.191-0.65 0.191-0.367 0-0.487-0.226-0.487-0.565v-1.525h1.2zM7.461 31.803v-2.118c0-0.798-0.508-1.334-1.328-1.342-0.431-0.007-0.875 0.127-1.187 0.601-0.233-0.374-0.6-0.601-1.115-0.601-0.36 0-0.713 0.106-0.989 0.501v-0.416h-0.735v3.375h0.741v-1.871c0-0.586 0.325-0.897 0.827-0.897 0.487 0 0.734 0.318 0.734 0.89v1.878h0.742v-1.871c0-0.586 0.339-0.897 0.826-0.897 0.501 0 0.741 0.318 0.741 0.89v1.878z"></path>
<path fill="#f79410" style="fill: var(--color7, #f79410)" d="M40.752 20.578v-0.493h-0.129l-0.149 0.339-0.148-0.339h-0.129v0.493h0.091v-0.372l0.139 0.321h0.095l0.139-0.322v0.373zM39.936 20.578v-0.409h0.165v-0.083h-0.42v0.083h0.165v0.409z"></path>
<path fill="#ff5f00" style="fill: var(--color8, #ff5f00)" d="M26.139 22.699h-11.123v-19.99h11.123z"></path>
<path fill="#eb001b" style="fill: var(--color5, #eb001b)" d="M15.728 12.703c0-4.055 1.899-7.667 4.855-9.995-2.162-1.702-4.891-2.718-7.856-2.718-7.021 0-12.711 5.692-12.711 12.713s5.691 12.713 12.711 12.713c2.965 0 5.694-1.016 7.856-2.718-2.957-2.328-4.855-5.94-4.855-9.995z"></path>
<path fill="#f79e1b" style="fill: var(--color9, #f79e1b)" d="M41.14 12.703c0 7.021-5.691 12.713-12.711 12.713-2.965 0-5.694-1.016-7.857-2.718 2.957-2.328 4.856-5.94 4.856-9.995s-1.899-7.667-4.856-9.995c2.163-1.702 4.892-2.718 7.857-2.718 7.020 0 12.711 5.692 12.711 12.713z"></path>
</symbol>
<symbol id="svgico-visa" viewBox="0 0 99 32">
<title>visa</title>
<path fill="#00579f" style="fill: var(--color10, #00579f)" d="M42.846 31.538h-8.010l5.010-30.977h8.009z"></path>
<path fill="#00579f" style="fill: var(--color10, #00579f)" d="M71.882 1.319c-1.58-0.627-4.086-1.319-7.184-1.319-7.91 0-13.48 4.218-13.514 10.248-0.066 4.449 3.988 6.92 7.020 8.404 3.099 1.516 4.152 2.505 4.152 3.857-0.032 2.075-2.504 3.032-4.81 3.032-3.198 0-4.911-0.493-7.515-1.648l-1.055-0.495-1.121 6.954c1.879 0.856 5.34 1.615 8.933 1.649 8.404 0 13.876-4.153 13.941-10.579 0.032-3.526-2.109-6.228-6.723-8.436-2.801-1.417-4.517-2.373-4.517-3.823 0.033-1.318 1.451-2.669 4.613-2.669 2.604-0.066 4.517 0.56 5.966 1.186l0.724 0.329 1.089-6.689z"></path>
<path fill="#00579f" style="fill: var(--color10, #00579f)" d="M82.527 20.564c0.66-1.78 3.198-8.667 3.198-8.667-0.033 0.066 0.658-1.812 1.054-2.966l0.56 2.669c0 0 1.517 7.415 1.846 8.964-1.252 0-5.076 0-6.658 0v0zM92.414 0.561h-6.195c-1.911 0-3.362 0.56-4.186 2.57l-11.897 28.406h8.404c0 0 1.384-3.823 1.681-4.647 0.922 0 9.098 0 10.284 0 0.23 1.088 0.956 4.647 0.956 4.647h7.416l-6.462-30.976z"></path>
<path fill="#00579f" style="fill: var(--color10, #00579f)" d="M28.147 0.561l-7.844 21.123-0.857-4.284c-1.45-4.943-5.998-10.314-11.074-12.984l7.185 27.089h8.47l12.59-30.944h-8.47z"></path>
<path fill="#faa61a" style="fill: var(--color11, #faa61a)" d="M13.019 0.561h-12.887l-0.132 0.626c10.052 2.571 16.71 8.767 19.445 16.215l-2.801-14.237c-0.461-1.978-1.879-2.539-3.625-2.604v0z"></path>
</symbol>
<symbol id="svgico-dec-right-bottom" viewBox="0 0 69 32">
<title>dec-right-bottom</title>
<path d="M0.895 31.119c-0.747-0.747-0.895-1.144-0.895-2.407 0-1.804 0.569-2.649 2.672-3.973 2.766-1.74 4.301-2.063 9.724-2.042 4.581 0.017 7.020 0.307 13.008 1.547 0.453 0.094 0.163-0.162-0.709-0.627-2.41-1.284-3.501-2.276-4.327-3.931-1.187-2.382-0.937-5.076 0.645-6.956 1.13-1.343 2.361-1.879 4.315-1.879 1.854 0 2.944 0.566 3.719 1.931 0.617 1.086 0.261 2.067-1.526 4.206-1.571 1.88-2.566 2.341-2.941 1.364-0.28-0.729 0.278-1.427 1.365-1.709 1.031-0.267 2.119-1.439 2.409-2.596 0.399-1.591-1.999-2.788-4.383-2.188-2.451 0.617-3.885 3.278-3.339 6.192 0.497 2.647 4.39 5.298 9.668 6.582 2.585 0.629 9.514 1.642 9.733 1.423 0.063-0.063-0.239-0.346-0.672-0.63-1.996-1.308-2.702-4.541-1.333-6.098 1.229-1.398 5.127-1.681 5.127-0.373 0 1.026-1.465 1.479-2.143 0.663-1.045-1.259-2.755 0.056-2.755 2.119 0 1.106 0.174 1.528 0.951 2.305 1.7 1.7 2.521 1.952 7.16 2.194 2.357 0.123 4.607 0.147 5.001 0.054 0.638-0.152 0.538-0.266-0.918-1.052-1.87-1.009-3.198-2.341-2.766-2.773 0.157-0.157 1.068-0.528 2.024-0.824l1.738-0.538-1.228-0.405c-0.676-0.223-1.681-0.791-2.233-1.263l-1.005-0.858 1.912-0.747-0.893-0.751c-0.491-0.413-1.162-1.278-1.49-1.922-0.542-1.063-0.552-1.197-0.104-1.448 0.451-0.252 0.447-0.348-0.045-1.098-0.724-1.105-1.067-3.069-0.861-4.929l0.169-1.53 2.951 0.107c1.623 0.059 3.399 0.293 3.946 0.52 0.964 0.401 0.995 0.39 0.995-0.336 0-0.412 0.175-0.75 0.388-0.75 0.655 0 2.617 1.486 2.825 2.139 0.27 0.852 0.661 0.77 0.902-0.188l0.202-0.804 0.748 0.703c0.411 0.387 1.078 1.365 1.481 2.173l0.733 1.471 0.375-0.905c0.206-0.498 0.279-1.148 0.163-1.446-0.532-1.355-0.739-3.896-0.434-5.317 0.249-1.159 0.596-1.73 1.55-2.546 1.062-0.909 1.409-1.038 2.544-0.945 1.556 0.127 3.073 0.848 3.513 1.67 0.865 1.616-0.093 3.69-1.705 3.69-1.003 0-2.451-1.502-2.738-2.839-0.316-1.473-0.443-1.555-1.247-0.8-1.771 1.664-1.589 5.769 0.395 8.923 0.398 0.633 0.884 1.841 1.078 2.684l0.354 1.532 0.861-0.825c0.474-0.454 0.94-0.747 1.035-0.651s0.508 1.119 0.915 2.273c1.283 3.636 0.915 5.989-1.188 7.593-1.184 0.903-1.722 0.96-2.971 0.314-0.86-0.445-0.903-0.563-0.903-2.458 0-1.095 0.21-2.494 0.466-3.107 0.272-0.65 0.353-1.229 0.194-1.387-0.444-0.444-1.328 2.214-1.374 4.13-0.023 0.968-0.146 1.76-0.273 1.76s-1.093-0.731-2.147-1.625c-2.206-1.87-2.453-2.713-1.629-5.548 0.541-1.862 0.586-2.316 0.228-2.316-0.332 0-1.28 3.042-1.28 4.108 0 1.074-0.282 0.951-1.678-0.728-0.991-1.193-1.111-1.507-0.953-2.498 0.1-0.624 0.272-1.371 0.384-1.662 0.139-0.362 0.074-0.485-0.208-0.391-0.226 0.075-0.567 0.602-0.758 1.17l-0.348 1.033-1.494-2.094c-1.771-2.481-2.271-2.133-0.562 0.391 0.649 0.958 1.225 1.845 1.281 1.972s-0.529 0.23-1.301 0.23c-2.018 0-1.728 0.514 0.43 0.765 1.72 0.2 1.91 0.305 3.089 1.713l1.257 1.501-1.176 0.004c-1.451 0.005-2.554 0.284-2.554 0.646 0 0.152 0.923 0.187 2.079 0.079l2.079-0.193 4.089 3.596-2.058 0.232c-2.349 0.264-2.924 0.428-2.712 0.771 0.082 0.133 1.38 0.116 2.885-0.037 2.565-0.262 2.838-0.233 4.38 0.467l1.645 0.746-0.802 0.802c-1.477 1.477-2.455 1.57-16.635 1.591-12.859 0.019-13.221 0.003-15.763-0.693-7.567-2.072-15.684-3.267-20.612-3.037-4.238 0.198-6.503 0.964-8.388 2.836-1.096 1.088-1.301 1.484-1.301 2.509 0 1.475 0.713 2.23 2.106 2.23 0.838 0 1.054-0.161 1.434-1.071 0.337-0.807 0.631-1.071 1.191-1.071 1.654 0 1.289 1.634-0.551 2.47-1.884 0.855-3.134 0.765-4.202-0.304zM67.818 3.724c0.375-1.493-0.327-2.34-2.297-2.772-0.891-0.196-1.004-0.156-0.832 0.292 0.109 0.285 0.2 0.679 0.2 0.876s0.274 0.805 0.608 1.352c0.765 1.255 2.034 1.392 2.321 0.252z"></path>
</symbol>
<symbol id="svgico-dec-left-top" viewBox="0 0 69 32">
<title>dec-left-top</title>
<path d="M67.98 0.881c0.747 0.747 0.895 1.144 0.895 2.407 0 1.804-0.569 2.649-2.672 3.973-2.766 1.74-4.301 2.063-9.724 2.042-4.581-0.017-7.020-0.307-13.008-1.547-0.453-0.094-0.163 0.162 0.709 0.627 2.41 1.284 3.501 2.276 4.327 3.931 1.187 2.382 0.937 5.076-0.645 6.956-1.13 1.343-2.361 1.879-4.315 1.879-1.854 0-2.944-0.566-3.719-1.931-0.617-1.086-0.261-2.067 1.526-4.206 1.571-1.88 2.566-2.341 2.941-1.364 0.28 0.729-0.278 1.427-1.365 1.709-1.031 0.267-2.119 1.439-2.409 2.596-0.399 1.591 1.999 2.788 4.383 2.188 2.451-0.617 3.885-3.278 3.339-6.192-0.496-2.647-4.39-5.298-9.668-6.582-2.585-0.629-9.514-1.642-9.733-1.423-0.063 0.063 0.239 0.346 0.672 0.63 1.996 1.308 2.702 4.541 1.333 6.098-1.229 1.398-5.127 1.681-5.127 0.373 0-1.026 1.465-1.479 2.143-0.663 1.045 1.259 2.755-0.056 2.755-2.119 0-1.106-0.174-1.528-0.951-2.304-1.7-1.7-2.521-1.952-7.16-2.194-2.357-0.123-4.607-0.147-5.001-0.054-0.638 0.152-0.538 0.266 0.918 1.052 1.87 1.009 3.198 2.341 2.766 2.773-0.157 0.157-1.068 0.528-2.024 0.824l-1.738 0.538 1.228 0.405c0.676 0.223 1.681 0.791 2.233 1.263l1.005 0.858-1.912 0.747 0.893 0.751c0.491 0.413 1.162 1.278 1.49 1.923 0.542 1.063 0.552 1.197 0.104 1.448-0.451 0.252-0.447 0.348 0.045 1.098 0.724 1.105 1.067 3.069 0.861 4.929l-0.169 1.53-2.951-0.107c-1.623-0.059-3.399-0.293-3.946-0.52-0.964-0.401-0.995-0.39-0.995 0.336 0 0.412-0.175 0.75-0.388 0.75-0.655 0-2.617-1.486-2.825-2.139-0.27-0.852-0.661-0.77-0.902 0.188l-0.202 0.804-0.748-0.703c-0.411-0.387-1.078-1.365-1.481-2.173l-0.733-1.471-0.375 0.905c-0.206 0.498-0.279 1.148-0.163 1.446 0.531 1.355 0.739 3.896 0.434 5.317-0.249 1.159-0.596 1.73-1.55 2.546-1.062 0.909-1.409 1.038-2.544 0.945-1.556-0.127-3.073-0.848-3.513-1.67-0.865-1.616 0.093-3.69 1.705-3.69 1.003 0 2.451 1.502 2.738 2.839 0.316 1.473 0.443 1.555 1.247 0.8 1.771-1.664 1.589-5.769-0.395-8.923-0.398-0.633-0.884-1.841-1.078-2.684l-0.354-1.532-0.861 0.825c-0.474 0.454-0.94 0.747-1.035 0.651s-0.508-1.119-0.915-2.273c-1.283-3.636-0.915-5.989 1.188-7.593 1.184-0.903 1.722-0.96 2.971-0.314 0.86 0.445 0.903 0.563 0.903 2.458 0 1.095-0.21 2.493-0.466 3.107-0.272 0.65-0.353 1.229-0.194 1.387 0.444 0.444 1.328-2.214 1.374-4.13 0.023-0.968 0.146-1.76 0.273-1.76s1.093 0.731 2.147 1.625c2.206 1.87 2.453 2.713 1.629 5.548-0.541 1.862-0.586 2.316-0.228 2.316 0.332 0 1.28-3.042 1.28-4.108 0-1.074 0.282-0.951 1.678 0.728 0.991 1.193 1.111 1.507 0.953 2.498-0.1 0.624-0.272 1.371-0.384 1.662-0.139 0.362-0.074 0.485 0.208 0.391 0.226-0.075 0.567-0.602 0.758-1.17l0.348-1.033 1.494 2.094c1.771 2.481 2.271 2.133 0.562-0.391-0.649-0.958-1.225-1.845-1.281-1.972s0.529-0.23 1.301-0.23c2.018 0 1.728-0.514-0.43-0.765-1.72-0.2-1.91-0.305-3.089-1.713l-1.256-1.501 1.176-0.004c1.451-0.005 2.554-0.284 2.554-0.646 0-0.152-0.923-0.187-2.079-0.079l-2.079 0.193-4.089-3.596 2.058-0.232c2.349-0.264 2.924-0.428 2.712-0.771-0.082-0.133-1.38-0.116-2.885 0.037-2.565 0.262-2.838 0.233-4.38-0.467l-1.645-0.746 0.802-0.802c1.477-1.477 2.455-1.57 16.635-1.591 12.859-0.019 13.221-0.003 15.763 0.693 7.567 2.072 15.684 3.267 20.612 3.037 4.238-0.198 6.503-0.964 8.388-2.836 1.096-1.088 1.301-1.484 1.301-2.509 0-1.475-0.713-2.23-2.106-2.23-0.838 0-1.054 0.161-1.434 1.071-0.337 0.807-0.631 1.071-1.191 1.071-1.654 0-1.289-1.634 0.551-2.47 1.884-0.855 3.134-0.765 4.202 0.304zM1.057 28.276c-0.375 1.493 0.327 2.34 2.297 2.772 0.891 0.196 1.004 0.156 0.832-0.292-0.109-0.285-0.2-0.679-0.2-0.876s-0.274-0.805-0.608-1.352c-0.765-1.255-2.034-1.392-2.321-0.252z"></path>
</symbol>
</defs>
</svg>
